<svg id="Layer_1" data-name="Layer 1" xmlns="http://www.w3.org/2000/svg" viewBox="0 0 319.52 756.24"><title>archive</title><path d="M992.49,675.76l13,.27v6a7.37,7.37,0,0,1-1.59,1c-2.61.8-5.29.4-7.94.4-31.81,0-63.63.06-95.44-.05-7.85,0-14,2.32-17.51,9.8a4.45,4.45,0,0,0-1.32,3c.47,8-.17,16,.34,24,3.12,4.6,6.46,8.94,12.22,10.49a7,7,0,0,0,1.56.68c16.51.47,33,.12,49.51.19,17.66.06,35.33,0,53,0,2.45,0,5-.47,7.17,1.39v3c-1.42,1.18-3.13,1-4.78,1-39.42-.21-78.85.81-118.27.38a10.59,10.59,0,0,1-2.8-.41c-6.5-3.1-9.61-8.28-9.6-15.45,0-9.1.22-18.21-.06-27.31-.3-9.45,3.42-16,12.51-19.1a13.53,13.53,0,0,1,3.74-.49q47.43-.07,94.86,0A40.51,40.51,0,0,1,992.49,675.76Z" transform="translate(-690.36 -121.81)" fill="#3293cf"/><path d="M1004.61,682.19a1.42,1.42,0,0,0,.88-.16v49a2,2,0,0,1-2.48,0,6.14,6.14,0,0,1-1.14-1.4c-1.59-2.47-1.88-5.25-1.88-8.08,0-10.22-.14-20.45.07-30.67C1000.49,687.45,1000.56,683.78,1004.61,682.19Z" transform="translate(-690.36 -121.81)" fill="#fefefe"/><path d="M881.38,736.09l124.11-.06v1c-2.58,1-5.27.43-7.9.46-16,.17-32-.21-48,.21a12.09,12.09,0,0,1-4.88.74q-28.87,0-57.74,0a10.6,10.6,0,0,1-4.89-.7A1.32,1.32,0,0,1,881.38,736.09Z" transform="translate(-690.36 -121.81)" fill="#2592d0"/><path d="M1005.49,733q-53.16,0-106.33,0c-1.9,0-4,.76-5.67-1,1.75-1.73,4-1.39,6.12-1.39q49.07-.06,98.14,0a20.44,20.44,0,0,1,7.74,1.43Z" transform="translate(-690.36 -121.81)" fill="#248ccd"/><path d="M1005.49,732h-112a5,5,0,0,1,0-.77l.66-.76c2-1.17,4.19-.86,6.33-.86q48.15,0,96.29,0c2.31,0,4.7-.28,6.73,1.24l2,.16Z" transform="translate(-690.36 -121.81)" fill="#7bb4da"/><path d="M949.42,737.08l56.07-.05v1l-55.92.05-.43-.45Z" transform="translate(-690.36 -121.81)" fill="#3293cf"/><path d="M986.67,383c9.71-.57,17.19,2.65,20.92,12.28a2.2,2.2,0,0,1,.26,2.36,165.67,165.67,0,0,0,0,19.17c.26,4.17.27,8.24-4.31,10.4l-3.9,3.26c-.89,1.9-2.91,1-4.27,1.7l-13.75.35c-4.18,2.27-8.69,1-13.07,1.18-6.06,0-12.12-.07-18.19,0-19,.38-37.91.11-56.87.15q-33.42.09-66.85,0c-2.63,0-5.36.35-7.74-1.26-.46-.64-.42-1.28.3-1.6a6,6,0,0,1,2.47-.24h119.4c-41.78,0-83.57,0-125.68,0-.32-.07.24,1,.35.33,0-.28.17-.36.36-.33.87.11,1.62.36,1.7,1.42-6.69,2.8-13.56,1.5-20.39.87-2.22-1.92-.08-3,1-3.82,3.82-2.92,4.91-6.79,4.82-11.36-.12-6.61-.14-13.24,0-19.85.11-4.75-1-8.78-4.94-11.8-1.11-.84-3.16-2.05-.72-3.81,2.24-.92,4.59-.76,6.91-.76q87.24,0,174.46,0C981.57,381.62,984.31,381.28,986.67,383Z" transform="translate(-690.36 -121.81)" fill="#2063a9"/><path d="M780.76,299.92a26,26,0,0,1,.14-21.57c.77-4,3.23-6.5,7-7.9l-.07.07c1.52-2.1,3.8-2.7,6.15-3.16l2.71-.05c3,.11,6,.1,9,0,2.58-.28,4.55,1.56,6.93,2,4.65.62,7.82,4.11,11.77,6.08,1.92,1,3.69,2.22,5.65,3.12,12.29,7.36,24.63,14.64,36.82,22.16,3.3,2,5.9,2,9.18.13,12.53-7.28,24.82-15,37.33-22.27,4.5-2.15,8.53-5.09,12.88-7.49,1.43-.79,2.7-2,4.53-1.76l4-1.77c.72-1.2,1.84-.64,2.83-.65,3.12.08,6.24.17,9.36,0,8.58-1.15,18.85,10.61,19,19.42.07,5.35.78,11-4.2,15-3.91,5.77-9.85,8.64-16,11.16-3,3.4-7.18,3.74-11.17,4.67v0c-1.12,2.12-3.44,1.27-5.09,2.08a9.28,9.28,0,0,0-4.8,1.94c-3.38,3-7.95,3.81-11.75,6.07.32,2.2,2.84,2.41,3.33,4.23a65.15,65.15,0,0,1-12.48,22.23c-5.36,0-9.73-3.24-14.72-4.44-1.11-.43-2.25-.78-3.39-1.15-1.56-.56-3.12-1.1-4.71-1.56a19.79,19.79,0,0,0-18.4,0c-1.58.46-3.15,1-4.7,1.54-1.13.39-2.27.74-3.38,1.17-5,1.14-9.35,4.47-14.71,4.45-5.81-6-9-13.65-12.53-21-.19-.41.21-.94.54-1.31l6.93-4.14-25.63-10c-5.46-1-10.79-2.39-15.14-6.14V311C787.23,310,782.75,306.41,780.76,299.92Z" transform="translate(-690.36 -121.81)" fill="#2063a9"/><path d="M882.43,676.19c-8.89,3.79-11.7,10.71-11.07,20a174.84,174.84,0,0,1,0,22.89c-.48,7.41,2.18,12.85,8.12,17-1.27,1.39-3,1.37-4.64,1.37-44.48,0-89,.21-133.43-.11l-1-.16c-9.39-2.6-14.76-8.39-15.88-17.13a172,172,0,0,0,.05-27c1.69-10.14,8.36-15.12,17.85-17.16,2.17-1.73,4.75-1.25,7.2-1.26,19.6,0,39.2,0,58.81,0,22.31,0,44.62,0,66.93,0C877.8,674.66,880.45,674,882.43,676.19Z" transform="translate(-690.36 -121.81)" fill="#2063a9"/><path d="M775.48,527a126,126,0,0,0,0-34c1.92-1.72,4.31-1.59,6.63-1.59q98.11,0,196.23,0c8.17,0,14.4,3.45,18.54,10.55a5.7,5.7,0,0,1,.49,2.7,80.78,80.78,0,0,0-.16,18.52,6.59,6.59,0,0,1,.25,1.65c-1.43,6.28-4.41,9.12-10.6,10.13a7.2,7.2,0,0,1-1.78-.35c-25-.49-50-.07-75-.21a65.26,65.26,0,0,1-9.48-.29,17.89,17.89,0,0,0-5.91-.71c-37.41,0-74.82.06-112.23,0a10.57,10.57,0,0,0-3.45.36,5.52,5.52,0,0,1-4.41-.32C772.8,531,774.41,529.07,775.48,527Z" transform="translate(-690.36 -121.81)" fill="#f2e9ec"/><path d="M969.45,627.84c3.31.07,6.62.08,9.93.22a16.73,16.73,0,0,1,16.06,13c.07,7.31.08,14.61-.12,21.92-.48,2.78-2.38,4.78-3.86,7-2.39,5-7.07,5.09-11.62,5.54H885.57q-36.3,0-72.57,0c-1-.06-2.13-.19-1.34-1.65s2.21-1.94,3.45-2.75a15,15,0,0,0,7-12.49c.18-4-.13-7.95.09-11.92.35-6.41-2.39-11.07-7.39-14.84-1.34-1-4.62-1.4-2.65-4.55,3.55-1.51,7.3-.33,10.93-.88q69.6-.13,139.21,0C964.74,626.42,967.31,626.12,969.45,627.84Z" transform="translate(-690.36 -121.81)" fill="#fe6e8a"/><path d="M991.57,820.24c.62,1.59,2.27,1.88,3.47,2.69a14,14,0,0,1,6.48,12.2c0,9.31.09,18.62,0,27.93-.12,8.78-6,14.89-14.7,14.9q-60.6.09-121.19-.05c-.09-2.06,1.35-2.17,2.84-2.22.5.27.86.9,1.58.71-.74-.24-.87-.8-.79-1.49,4.74-5.61,5.2-12.24,4.9-19.19-.27-6.12-.15-12.26,0-18.39.08-4.89-1.23-9.11-4.73-12.65-1.1-1.11-3.22-2.29-1.17-4.4,2.23-.94,4.58-.64,6.88-.64q30.1,0,60.2,0c2.14,0,4.33.3,6.35-.68,4-2.1,5.47-5.56,5.47-9.87,0-4.64-.34-9.32.1-13.92.64-6.84-1.17-12.4-6.79-16.53a2,2,0,0,1-.12-1.6,3.06,3.06,0,0,1,2.3-.71c3.21.14,6.31,1.16,9.53,1.26,5.49.84,7.53,4.76,8.56,9.58a13.08,13.08,0,0,1-.28,4.09c-1.09,6.4-.45,12.84-.4,19.26a9.61,9.61,0,0,1,.35,1.5c.35,3-1.42,5.1-3.08,7.25,2.78-.79,5.63-.33,8.44-.55,4-.39,4.5-4.29,6.52-6.66.31-.31.63-.61.93-.92-.14-7.29.31-14.57-.38-21.82-.32-.67-.67-1.32-1-2-.73-3.69-4.81-5.47-5.3-9.29,3.13-1,6.35-.24,9.52-.43,6.1,1.51,7.71,3.28,8.17,9-.57,8.47-.33,16.93-.12,25.39.81,2.41-.7,4.34-1.49,6.51C985.58,819.37,988.89,818.3,991.57,820.24Z" transform="translate(-690.36 -121.81)" fill="#88bfe8"/><path d="M968.62,432.46l13,0,2.1,2.71a10.77,10.77,0,0,0-.42,4.72c.19,12.25,1.2,24.51-.55,36.72l-1.08,1.44c-2.28,2.37-5.27,1.75-8,1.75-24.66,0-49.32.15-74-.06-35.95-.11-71.9,0-107.85-.06-1.84,0-3.71,0-5-1.62l-2-2.89a3.19,3.19,0,0,1,1.33-1.71c5.61-2.77,10.8.8,16.22,1.07.89.36,1.6,1.09,2.61,1.22.51,0,1,0,1.53,0,11.32-.21,10.67,1.25,10.68-10.79,0-7.6,0-15.21,0-22.81,0-7.34-.14-7.45-7.48-7.51-1,0-2,0-3,0a3.6,3.6,0,0,0-2.67,1,12.68,12.68,0,0,1-1.2.82c-1.29.78-2.74,1.57-4.16.8a20.72,20.72,0,0,0-11.24-2.62c-.68,0-1-.71-.8-1.46a7.13,7.13,0,0,1,.26-.78c3.14-2.53,6.4-2.21,9.73-.4h21a.77.77,0,0,1,1.09,0q26.24.1,52.48.2l79.48.19a4.18,4.18,0,0,1,1,1.51c.84,11.56.14,23.14.4,34.71.05,2.12-.47,4.32.72,6.3a3.63,3.63,0,0,0,1.49.69c11.9.18,10.79.42,10.84-10.71,0-8.29,0-16.58,0-24.87,0-2.3-.3-4.68,1.2-6.72,3.27,1.28,2.6,4.3,2.63,6.7.12,10.58.17,21.17,0,31.75,0,.67-.75,1.61.49,2,8.26,1.91,9.73.78,9.79-7.73,0-6.63.11-13.27,0-19.9-.15-7.09-1-8-7.82-9a3.73,3.73,0,0,1-2.9-1.67A2.91,2.91,0,0,1,968.62,432.46Z" transform="translate(-690.36 -121.81)" fill="#fe6e8b"/><path d="M721.49,872c2.44-2.76,3.14-6,3.07-9.65-.18-9.13,0-18.26,0-27.4,1.94-1.7,4.35-1.51,6.66-1.51q58.74,0,117.49,0c2.5,0,5.46-.67,7,2.44-1,.92-2.2.61-3.33.61q-57.74,0-115.47,0c-.65,0-1.45.41-1.66,0h4.2q55.49,0,111,0c2,0,4,.44,5.9-.51,5.34-.45,8.05,2,10.41,9.22a80.3,80.3,0,0,1,.26,15,13.9,13.9,0,0,1-12.16,13.15,38.45,38.45,0,0,1-6,.28q-59.64,0-119.27,0C726.8,873.59,723.83,874.21,721.49,872Z" transform="translate(-690.36 -121.81)" fill="#f2e9ec"/><path d="M946.48,746v22c-2.44,2.05-5.39,1.39-8.16,1.39q-87.12.06-174.24,0c-2.65,0-5.34-.31-7.94.5-2.43.48-4.85.73-7.23-.25-2.55-1.6-.86-5.17-3.21-6.87a64.61,64.61,0,0,0-16.44,0c-2.33,1.66-.73,5-3,6.74-4.28,1.54-8.74.48-13.1.95a2.1,2.1,0,0,1-1.44-1.12c-.71-8-1.88-15.94.73-23.81,2-1.27,4.17-1,6.31-1q110.52,0,221,0C942.12,744.63,944.54,744.28,946.48,746Z" transform="translate(-690.36 -121.81)" fill="#f2e9ec"/><path d="M822.47,627.84l-11,.37c-1.48,1.36-3.34,1.38-5.16,1.39-28.7,0-57.41.15-86.12-.05a14.48,14.48,0,0,1-2-.22,10.26,10.26,0,0,1-7.7-6.43l-1-4.89a170.36,170.36,0,0,0,0-27.94c1.88-6.94,5.68-10,12.71-10,14.74,0,29.48,0,44.22,0,17-.94,34.09-.27,51.13-.38a5.22,5.22,0,0,1,3.71,1.14c.84,1.22.18,2.32-.56,3.15-3.62,4-4.18,8.87-3.91,14a50.66,50.66,0,0,1,0,7C816.15,613.22,817.19,621,822.47,627.84Z" transform="translate(-690.36 -121.81)" fill="#88bfe8"/><path d="M964.49,592c0,7.45-.07,14.9,0,22.35.05,4,.61,7.83,4.9,9.74-2.44,2-5.38,1.46-8.16,1.47q-60.22,0-120.45,0c-14.74,0-19.43-5-18.88-19.73a21.83,21.83,0,0,1,.87-5.91c1.8-4.7,4.46-8.47,10-9.06a8.29,8.29,0,0,1,2.75.39,13.93,13.93,0,0,0,3.47.3c41.21,0,82.42.12,123.64-.06A3,3,0,0,1,964.49,592Z" transform="translate(-690.36 -121.81)" fill="#f3f1f2"/><path d="M823.74,163.5a6.57,6.57,0,0,0,3.84-1.45,6,6,0,0,1,3.36-2.81c6-2.64,8.33-8.8,12.71-13,1.19-1.07,1.4-2.6,1.78-4,4.22-16,17.84-23.71,33.66-19.1a6.63,6.63,0,0,0,1.48.12c1.28.81,3.17.4,4,2h0c.52.43,1.52.17,1.66,1.15,7.3,6.32,11.32,14.07,10.33,24-.21,2.1-.33,4.28-1.95,5.94-2.34-.48-1.25-2.36-1.35-3.61-.57-6.68-4-11.43-9.61-14.81-3.13-1.89-6-1.71-8.46,1.12-3.08,3.5-6.37,5.73-11.62,5.12-4.34-.51-7.73,4.52-5.54,8.23,3,5.1,2.29,10.19,1.8,15.4-.62,6.6-1.53,13.17-2.15,19.77-.19,2.12-.59,4.33-2.76,5.55-1.39,2.9-4,2-6.33,2.05a2.44,2.44,0,0,0-1.79-.42c-.41,0-.83-.18-1.22.08a1.29,1.29,0,0,1,1.23.52c-3.67,1.5-7.89,1.26-11.28,3.62a24.13,24.13,0,0,1-7,5.45c-6.12,2.12-9,6.35-10,12.85-.66,4.56.79,9.77-3,13.66h-.36l-.27.21c-3.64-.2-7.27-.42-10.34-2.73l-2-1.21c-2,.1-3.19-1.07-4.07-2.7-7.11-6.19-12.43-13.38-12.88-23.26a14.74,14.74,0,0,0,0-8c-.26-5,2.35-9.18,4.09-13.6,3.46-8.94,13.86-16,23.46-15.9,3.14,1,6.34.15,9.49.29A10,10,0,0,1,823.74,163.5Z" transform="translate(-690.36 -121.81)" fill="#2063a9"/><path d="M839.84,353.12l14.73-5c1-.56,2.17-.3,3.27-.31,10,.22,20-.15,30,.38l.82-.11,14.76,5.05c2.32-1.26,4.48-.35,6.66.47,5.86,2.21,11.66,4.63,17.68,6.41,7.32,2.17,10.12.78,13.11-6.3.48-4.49,3-6,7.43-5.92,9.91.18,19.82,0,29.73.07,2,0,4-.12,5.61,1.39q0,12.5,0,25c-1.79,1.64-4,1.41-6.17,1.41q-88,0-176,0c-2,0-4,.21-5.83-1-2.27-2.73-1.29-6-1.4-9.06-.15-4-.15-7.94,0-11.9.19-4.75,1-5.39,6.06-5.48,2.08.62,1.87,2.35,2,4,.7,6.87,4.28,9.64,11.14,8.28,6.18-1.22,11.91-3.9,17.83-5.94C834.06,353.63,836.7,351.8,839.84,353.12Z" transform="translate(-690.36 -121.81)" fill="#f2e9ec"/><path d="M987.54,534.18c4.88-1.2,7.83-4.31,9.09-9.11a3,3,0,0,0,.56-1.49c0-6.24-.38-12.48.24-18.71a5.36,5.36,0,0,0-.66-3.33c-.87-2.19-.31-4.59-1-6.79-.89-4.53-4-7.27-7.69-9.55a7.22,7.22,0,0,0-1.46-.69c-35.19-.17-70.34,0-105.5-.06q-48.49,0-97,0c-2.49,0-5,.26-7.46-.41a3,3,0,0,1-1.4-1.16c0-1.66,1.4-1.67,2.47-2.05,1.75,0,3.08-1.14,4.62-1.75,7.58-.73,15.19-.09,22.79-.27,19.15-.44,38.32-.38,57.47,0,7.31.14,14.83,1.41,21.95.85,5.89-.46,11.81,1.11,17.59-.53a7.34,7.34,0,0,1,4-.23c11,3.22,22.18,1.19,33.27,1.63,3.94.15,8.12,1.19,11.76-1.6a3,3,0,0,1,2.44-.18c6.65,2.1,13.38-.1,20,.43,1.75-.44,3.52,2.36,5.27,0a3.62,3.62,0,0,1,1.1-.8c2.56-.57,5.17-.09,7.75-.37l.7-.11c6.91,1.49,11.93,5.14,13.94,12.22-1,5.16,0,10.4-.53,15.58.6-4.9-.6-9.9.71-14.77,1.82,4.49.72,9.18.88,13.77.2,5.81.1,11.63,0,17.45-.11,11.58-7.46,19.1-19.1,18.85-4.28-.09-6.86.62-6.85,5.36l-.46-.47c-.26-.72.24-1.57-.35-2.25.44.7.08,1.26-.35,1.75a3.45,3.45,0,0,1-1.78.82,43.5,43.5,0,0,1-8,.29H778.41a59.86,59.86,0,0,0-7.46.19,5.71,5.71,0,0,0-1.45.65c-4.15,2.11-8.46,4-9.55,9.34-1.39,6.86.64,10.83,7.61,14.37a4.16,4.16,0,0,1,1.09.82,2.93,2.93,0,0,1,.27,1.27c4-.35,8-.77,12,.31a59.43,59.43,0,0,0,8,.21H955.76a37.79,37.79,0,0,1,7,.21c2.19.41,4.82.5,5.09,3.69-.48,1.1-1.44,1.21-2.46,1.18a25.27,25.27,0,0,0-8.81-1.28q-61.6,0-123.21,0c-2.15,0-4.35-.26-6.21,1.23-1.7.85-3.55.76-5.37.76-17.79,0-35.57.07-53.36,0l-.94-.12c-9-1.82-14.1-7.53-16.14-16.27a15.25,15.25,0,0,1,0-7l1.44-4.91c-.46-1.61.59-2.37,1.74-3.08v0A4.91,4.91,0,0,1,757.3,545l1.15-1c1.83-3.48,5.38-4.09,8.65-4.71a13.47,13.47,0,0,0,5.68-2.43c2.59-1.59,5.28-2.55,8.35-1.35,2.51.25,5,.15,7.5.15H965.45c2.66,0,5.33.23,8-.35,4.17-1,8.41-.49,12.63-.52A3.12,3.12,0,0,0,987.54,534.18Z" transform="translate(-690.36 -121.81)" fill="#2162aa"/><path d="M750.57,813.17c1.74-6.67.54-13.48,1-20.22,1.94-1.69,4.33-1.5,6.64-1.5q62,0,124.09-.05c6.38,0,11,2.07,12.89,8.55,1.41,5.95,1.21,11.49-4.07,15.73a5.27,5.27,0,0,1-4.47,1c-7-.47-14-.19-21-.2q-52.71,0-105.43,0c-2.49,0-5,.24-7.46-.38C751.2,815.71,751.12,814.26,750.57,813.17Z" transform="translate(-690.36 -121.81)" fill="#f2e9ec"/><path d="M690.47,668l0-24c1.94-1.71,4.33-1.56,6.64-1.56,35.64,0,71.27,0,106.9-.07,6.32,0,11,2.17,13.88,7.81,1.24,2.61,1,5.33.65,8.07-1.52,5.54-4.08,10.1-10.47,11a17.73,17.73,0,0,1-5.39-.39,13.44,13.44,0,0,0-4.46-.44c-35.32,0-70.64-.12-106,.07A2.94,2.94,0,0,1,690.47,668Z" transform="translate(-690.36 -121.81)" fill="#f2e9ec"/><path d="M721.49,872q65.4,0,130.81,0c8.33,0,13.21-5.06,13.23-13.41,0-4.82-.08-9.65-.12-14.47-.16-3-1.3-5.84-2.1-8.7-1.11-4-4.14-6.3-8.17-7.25a38.3,38.3,0,0,0-8.94-.6q-58.43,0-116.84,0a35.86,35.86,0,0,1-7-.5c-2.69-.92-3.52-2.93-2.78-5.45s3-1.48,4.66-1.51c6.1-.12,12.22-.23,18.32,0,2.69.12,3.85-1.07,4.63-3.24l.63.35a26.89,26.89,0,0,1,1.34,2.55,3.27,3.27,0,0,0,1.41.69c36.76.25,73.5.07,110.23.08a10.19,10.19,0,0,0,3-.37,3.51,3.51,0,0,1,3.53.94c6.64,4.39,8.77,10.62,8.25,18.39a146.19,146.19,0,0,0,0,19.41c.43,6.73-1.08,12.46-6.18,17-.27.43-.58.43-.91.07l-2.91,1.85q-71.21.06-142.43.09c-1.4,0-3.3.49-3.55-1.69C719.41,874.63,718.68,872.47,721.49,872Z" transform="translate(-690.36 -121.81)" fill="#afdcf3"/><path d="M854.92,193.1c2.66-9,2.49-18.4,3.69-27.61.54-4.15,1.79-8.29-2-12.12-2.1-2.15-1-5.44.88-7.83s4.77-3.87,7.93-2.84c2.21.72,3.42.24,5.21-1.19,3.38-2.7,5.09-8.92,11.58-5.84,7,3.34,11.28,8.6,12.28,16.35a38.66,38.66,0,0,1,.08,4.31,18.76,18.76,0,0,1-9.23,14.48,5.08,5.08,0,0,0-2.77,4.75c-.21,4.84.61,9.57,1,14.35.23,3.11-.65,4.5-4.1,4.39-6.8-.23-13.61-.06-20.41,0C857.54,194.31,856.07,194.31,854.92,193.1Z" transform="translate(-690.36 -121.81)" fill="#fdabe9"/><path d="M986.67,383c-2,.06-4,.19-6,.19l-178.57,0c-1.82,0-3.65.1-5.47.15-1.61,1.5-3.49,1.18-5.37.82a7.39,7.39,0,0,1-3.72-2.81c-10.51-7.24-14.14-15.56-11.21-25.74a20.75,20.75,0,0,1,19.86-15.33c5.15-.1,10.31,0,15.47,0-1.35,4.64-5.72,5.79-9.22,7.94-2.43.31-5-.43-7.32.58a6.4,6.4,0,0,1-1.33.54c-6.56,2.26-9.7,6-9.9,12-.18,5.41,3.41,10.17,9.68,12.82a6.15,6.15,0,0,1,1.39.73l.67.46a4.73,4.73,0,0,0,1.68.46c59.82.2,119.63,0,179.44.1,3.3,0,6.68-.38,9.74,1.39Z" transform="translate(-690.36 -121.81)" fill="#fc6e8a"/><path d="M988.53,484.91c4.69,1.26,7.2,4.46,8.07,9.11.42,3.07,1,6.14-.28,9.15-4.65-7.08-11-10.3-19.68-10.27-67,.2-134.1.13-201.15.14q-.57-4-1.13-7.92a2.62,2.62,0,0,1,1.82-.6c63.63.23,127.26,0,190.89.11,6.83,0,13.66-.17,20.49.12Z" transform="translate(-690.36 -121.81)" fill="#89bfe8"/><path d="M824.38,598.93a24,24,0,0,0-.76,3.88c-.58,14-.23,21.58,18.65,21.36,42.38-.51,84.77-.09,127.15,0l0,3.71c-24.25.07-48.49.18-72.74.18-24.75,0-49.5-.11-74.24-.18a15.41,15.41,0,0,1-7-14c.16-6.66.13-13.33,0-20-.09-5.08,1.77-9,6-11.84a3.92,3.92,0,0,1,2.89-2.77,8.42,8.42,0,0,1,2.69.24c44,.28,88,0,132,.12a46.82,46.82,0,0,1,6.49.15c3.69.53,4.06,1.61,2,5.3l-1,1a32.65,32.65,0,0,1-7.45.53q-60.19,0-120.39,0C829.24,586.6,826.12,589.37,824.38,598.93Z" transform="translate(-690.36 -121.81)" fill="#afdcf3"/><path d="M746.61,427.08a13.52,13.52,0,0,0,3-9.24c-.07-7.83,0-15.67,0-23.5,1.4-1.46,3.24-1.58,5.08-1.59,10-.06,19.93-.24,29.89.07,6.38.19,11.12,3.08,13.1,9.53a59.32,59.32,0,0,1,.33,14.94,11.82,11.82,0,0,1-11.36,11.22c-12,.33-24,.15-36,.07C749.15,428.57,747.63,428.46,746.61,427.08Z" transform="translate(-690.36 -121.81)" fill="#f2e9ec"/><path d="M808.5,668.13c5.14-1,7.18-5,8.89-9.28,2.2-4.81-1.31-9.76.36-14.58,0-.06-.19-.28-.24-.26a2,2,0,0,0-.42.28c-2.89-1.82-3-6.37-7-7.06a26.38,26.38,0,0,1-3.41-1.37c-1.49-.72-3.19-.66-4.73-1.23-26.26-.43-52.51-.07-78.77-.18-8.47,0-16.95-.17-25.42.06-4.19.11-7.06-.79-7.35-5.52l.08-1c8.63-.18,17.26-1.46,25.9-.06q43.83.06,87.66.14c2.48,0,5,.11,7.46.17,17.72,11.12,17.72,35.63,0,46.65-1.07,1.1-2.44.5-3.67.66q-30,0-59.93,0c-1.81,0-3.66.32-5.45-.32-15.63,0-31.27,0-46.91-.15-1.72,0-3.7.79-5.13-.95.28-4,2.25-5.53,6.37-5.52,34.46.1,68.91.06,103.37.06,1.34,0,2.65.29,4,.32C805.55,668.51,807.11,668.8,808.5,668.13Z" transform="translate(-690.36 -121.81)" fill="#f9a882"/><path d="M894.34,801.13c-3-7.22-4.38-8.13-12.36-8.14l-130.45,0c0-3.75-.07-7.51-2.12-10.86,1.29-1.38,2.9-1.27,4.55-1a14.64,14.64,0,0,0,4.93.51q61.53,0,123.06,0a24.68,24.68,0,0,0,3-.15,7.49,7.49,0,0,1,1.82-.33C895.36,783.23,898.85,792.43,894.34,801.13Z" transform="translate(-690.36 -121.81)" fill="#89bfe8"/><path d="M722.41,827.1c1.28-1.56,3.06-1,4.66-1q61.86,0,123.74,0c11.17,0,16.42,6.58,14.6,18.08-1.76-3.57-3.83-6.82-8-8-.64.37-1.25.47-1.73-.24-1.77-1.41-3.85-.81-5.79-.81q-59.67-.06-119.36,0c-2,0-4-.1-6-.16C724.71,832.08,723.6,829.58,722.41,827.1Z" transform="translate(-690.36 -121.81)" fill="#8abfe8"/><path d="M710.51,777c-8.68-1.1-14.51-6.54-16-14.94a71.9,71.9,0,0,0-.1-8,18.18,18.18,0,0,1,17.92-16c9.44-.21,18.89-.11,28.34-.14,2.06-1.26,4.24-.81,6.43-.51a4.54,4.54,0,0,1,1.4.94,5,5,0,0,0,1.4,1,15,15,0,0,0,4.48.34c41.29.1,82.59-.19,123.89.15a3.28,3.28,0,0,0,1-.23c1.33-.67,2.83-.91,4.11-1.71a4.1,4.1,0,0,1,1.8-.28q29.39,0,58.77,0a20.3,20.3,0,0,1,5.45.25l.22.27c-.05,1.33-.11,2.65-.17,4-1,2-2.9,2-4.69,2.26a47.88,47.88,0,0,1-6,.12H722c-2.66,0-5.32-.06-8,.11a4.18,4.18,0,0,0-1.61.49c-.42.29-.87.57-1.31.84-5.07,2-9,5.2-9.25,11.12-.24,6.26,3.34,10.13,8.84,12.5a5.58,5.58,0,0,1,1.1,1c4.69.56,9.37,0,14.06,0a1.94,1.94,0,0,1,1.32,1c.77,2.08,1,4.08-.74,5.83a1.7,1.7,0,0,1-.88-.28A44.82,44.82,0,0,0,710.51,777Z" transform="translate(-690.36 -121.81)" fill="#fd6e8b"/><path d="M810.43,636.16c4.62.72,5.27,4.84,7,8.08.71,2.32,1.28,4.63-.34,6.83-3.17-5.82-8.09-7.25-14.56-7.2-37.33.27-74.66.14-112,.15q0-4.51-.11-9a3.16,3.16,0,0,1,1.84-.48c30.88.25,61.76,0,92.64.11C793.41,634.65,802,634.09,810.43,636.16Z" transform="translate(-690.36 -121.81)" fill="#afdcf2"/><path d="M930.69,269.28a129,129,0,0,1-17.06,10.2,4.59,4.59,0,0,1-1.45-3.61c0-10.64-.71-21.29.37-31.92a5.68,5.68,0,0,1,1-1.65c1.86-10.31,5.46-20.38,4.12-31.14-.46-3.65-2.51-6.38-4.53-9.24,5.31-.61,9.8,2.62,11.6,8.23,1.94,6,1.91,12.41,2.58,18.61C928.82,242.23,929.62,255.77,930.69,269.28Z" transform="translate(-690.36 -121.81)" fill="#fdace9"/><path d="M815.56,230.91c.68-5.09,1.4-10.17,2.05-15.27.9-7,3.8-10.36,10.93-12.37.86,3.11-2.66,4.35-3,7-1.86,6,1,11.54,1.76,17.28.61,4.87,2.12,9.63,2.39,14.58a11,11,0,0,1,1,1.71c1.08,10.69.43,21.4.37,32.11a4.38,4.38,0,0,1-1.5,3.53,128.12,128.12,0,0,1-17-10.13Z" transform="translate(-690.36 -121.81)" fill="#fdabe9"/><path d="M746.61,427.08c13.14.06,26.28.23,39.42.13,6,0,10.33-4.4,10.55-10.43.17-4.82,0-9.65-.08-14.48-1.9-9.74-5.25-12.51-15.09-12.58-11.25-.08-22.51.22-33.76-.15-3.86-.58-4.88-2.66-3.25-6.14,2.86-1,1,2,2.06,2.49.07.68.49-.12.43-.2-1.13-1.66-1.09-2.9,1.37-3,13.32-.05,26.63.19,39.93-.21a6.62,6.62,0,0,1,2.42.49l6,.31c6.67,3.4,8.67,8.95,8.09,16.16a105.78,105.78,0,0,0,0,17c.58,7.11-1.75,12.32-8.14,15.61l-9.73.4-40.26-.37c-1.48-3.66,1.09-3.35,3.3-3.35,12,0,23.9-.05,35.85,0-12.1-.09-24.21.07-36.31-.12-2.69,0-3.39,1.26-3.84,3.33C744.37,430,743.87,428.22,746.61,427.08Z" transform="translate(-690.36 -121.81)" fill="#3192cf"/><path d="M942.79,777.55l-2.2-.06a7.12,7.12,0,0,1-3.8.92c-14.85-.08-29.7.33-44.55-.2-3-1.11-6.22-.54-9.27-1.23a13.92,13.92,0,0,0-4.93-.52q-58.56,0-117.11,0a14.18,14.18,0,0,0-3.95.34c-.86.36-1.67.81-2.56,1.1-2.16.48-4.3.78-6.23-.71a5.44,5.44,0,0,1,.12-6.28,3.32,3.32,0,0,1,1.88-.42c19.64.32,39.29.11,58.93.13,44,0,87.92,0,131.87.06,3.09,0,6.94-1.12,8.41,3.33l.31,2.94C947.5,778.17,945.08,777.2,942.79,777.55Z" transform="translate(-690.36 -121.81)" fill="#fd6e8b"/><path d="M824.38,598.93c-1.64-8,2.78-13.76,10.79-13.88s16.29,0,24.44,0q50.63,0,101.24,0c1.9,0,4-.77,5.66,1l-1.92,4.17a17.49,17.49,0,0,1-6.82,1.22H838.11c-1.33,0-2.65-.19-4-.23a4.23,4.23,0,0,0-1.7.73C828.44,592.75,826.1,595.48,824.38,598.93Z" transform="translate(-690.36 -121.81)" fill="#89bfe8"/><path d="M802.57,347.5c2.38-3.26,6.77-4,9.12-7.27,6-1.75,10.44-6.34,16-9a183.19,183.19,0,0,0,12.19,21.86c-8.61,2.94-17.16,6.13-25.87,8.77s-15.42-5.07-12.36-12.65a.89.89,0,0,1-.35-.74c0-.29.06-.43.12-.43A3.63,3.63,0,0,1,802.57,347.5Z" transform="translate(-690.36 -121.81)" fill="#e3e8fe"/><path d="M941.63,355.23c-2.93,6.89-6.29,8.33-13.57,6.3-8.4-2.34-16.08-6.7-24.68-8.41,4.39-7.1,8.77-14.21,12.16-21.86,1.38-.77,2.21.16,3.06,1l1,1c.61.05.74.59,1,1h0c1.25.84,3.12.45,4,2,2,1.76,4.06,3.54,6.87,4a26.13,26.13,0,0,1,9.93,6.75,3.29,3.29,0,0,1,.81,2.09C941.76,351.09,942.66,353.25,941.63,355.23Z" transform="translate(-690.36 -121.81)" fill="#e3e8fe"/><path d="M786.62,433.26c4.56.21,9.08.44,13,3.31,1,.75,1.86-1.06,3-1.33,1.36,1.46,1.38,3.3,1.39,5.13q0,14.88,0,29.77c0,1.8.13,3.69-1.38,5.1-5.75.94-11.19-3.2-17-1-1.07-8.19-.2-16.42-.49-24.63-.17-4.76.41-9.55-.33-14.3A2.46,2.46,0,0,1,786.62,433.26Z" transform="translate(-690.36 -121.81)" fill="#fe6e8a"/><path d="M829.72,243.24c0-.38,0-.76,0-1.15,5.24-.54,10.49-1.68,15.7-1.49,7.9.29,14.52,4.05,20,9.71a4.8,4.8,0,0,1,2.13,3h0a5,5,0,0,1,2,3.11,1.36,1.36,0,0,0,.27.78c3.34,1.74,3.3-2.78,5.58-3a1.63,1.63,0,0,0,.29-.83c2.09-6.34,6.94-9.42,13-11,8.31-3.28,16.6-.79,24.9,0l-.12,1c-3.55,3.18-8.14,4.46-12.3,6.45-8.55,4.09-17.26,7.86-25.81,12-2,1-4,1.61-6.2.58-12.68-5.88-25.43-11.59-38-17.71C830.55,244.32,830.21,243.7,829.72,243.24Z" transform="translate(-690.36 -121.81)" fill="#fdab96"/><path d="M991.57,820.24H979.79c1.07-2.83,3.79-4.39,3.63-7.27l.24-.67a6.23,6.23,0,0,0,.37-1.41c.19-7.57.2-15.14,0-22.7a6.7,6.7,0,0,0-.36-1.4l-.24-.68c-.5-4.34-3.6-6.36-7.13-8-.32-.44-.24-.75.27-1,3.66.46,7.47-1.1,11,.84-1,.89-2,.34-3.1.52,2-.06,4,.35,6-.36,4.5,1,7.28,4.23,7.53,8.44.5,8.57,1.06,17.2-.32,25.78-1.54-6.61-.17-13.32-.71-19.52-.13-1.1-1.05-.1-.51-.49,1.5,6.83-.46,13.84,1.06,20.67C997.09,816.72,994.55,818.66,991.57,820.24Z" transform="translate(-690.36 -121.81)" fill="#2063a9"/><path d="M748.53,771v6a3.86,3.86,0,0,1,.7,1,4.87,4.87,0,0,1,.21,1.2,5.4,5.4,0,0,1-.21,1.83,2.91,2.91,0,0,1-.75,1c-1,1.84,1.82,4.9-1.91,5.84a2.79,2.79,0,0,1-1.91-.32c-4.8-3.2-9.52-4.49-14.08.43-.85.91-2.21.51-3.25,1-1.81-3.73-.21-7.74-.92-11.55v-6.33a1.8,1.8,0,0,1-.52-1,1.83,1.83,0,0,1,.52-1c.67-2.63-.89-5.55,1.08-8a82.53,82.53,0,0,0,20,0c2,2.44.39,5.37,1.09,8a1.78,1.78,0,0,1,.51,1A1.7,1.7,0,0,1,748.53,771Z" transform="translate(-690.36 -121.81)" fill="#89bfe8"/><path d="M956.25,819c1.37-2.2,3.2-4.17,3.43-6.93l.3-1.54c.34-7.37,0-14.75.37-22.12a4.81,4.81,0,0,0-.71-1.39,12.21,12.21,0,0,0-7.25-8.88c-.29-.26-.36-.48-.22-.66a.53.53,0,0,1,.38-.24h9.89c1.38.63,3.22,0,4.24,1.61a11.63,11.63,0,0,1,6,8.26c0,.28,0,.56-.07.83.5,7.76.19,15.53.19,23.29,0,.28-.07.55-.1.83-.86,3.6-2.24,6.8-6.22,8C963.18,818.6,959.54,820.49,956.25,819Z" transform="translate(-690.36 -121.81)" fill="#2063a9"/><path d="M940.58,347.36c-2.46-3.12-6.74-3.91-9.1-7.15,16.48,0,33,.21,49.44-.07,4.86-.08,6.83,1.22,5.6,6.1-2.53,1.63-5.39,1.32-8.18,1.38-11.41.26-22.83-.44-34.24.31A5.5,5.5,0,0,1,940.58,347.36Z" transform="translate(-690.36 -121.81)" fill="#fe6e8c"/><path d="M747.47,388.4c12.94-.06,25.88-.26,38.81-.13,6.94.06,10.57,5.32,10.22,14-2.44-5.72-6.81-8.13-13-8-11.31.16-22.62.07-33.94.08l-1.11-3C747.35,390.61,746.66,389.76,747.47,388.4Z" transform="translate(-690.36 -121.81)" fill="#88bfe8"/><path d="M961.65,301.25C968.12,286,963,272.3,949,267.64a13.69,13.69,0,0,0-2.42-.33c-3,.05-6,.06-9,0l-2.95.2c3.92-2.16,7.24-5.17,12.53-1.72,2.37,1.54,6.87-.14,10.39-.45,1.61-.14,3.57,0,3.71,1.62.36,4.24,3.27,6.08,6.21,8.33,1.27,1,5.29,2.57.94,5.38-1.28.82,3.65,1.14,1.42,2.77-3.91,2.89.13,7.25-2.49,10.23-.87,1-.63,2.66.82,2.66,2,0,3,.09,2.12,2.39-.69,1.7-.83,3.82-3.81,2.31C965.26,300.39,963.3,301.13,961.65,301.25Z" transform="translate(-690.36 -121.81)" fill="#fbfdfc"/><path d="M711.49,744c1.82-1.82,4.11-1,6.18-1Q830.13,743,942.59,743c2.31,0,4.69.39,6.81-1,0,.64,0,1.29,0,1.93a25.58,25.58,0,0,1-8.83,1q-111.42,0-222.85,0C715.65,745,713.4,745.55,711.49,744Z" transform="translate(-690.36 -121.81)" fill="#fc6686"/><path d="M711.49,744l238,0c-.59,1.38-1.91.88-2.93,1.15-1.94.73-4,.36-5.94.36q-113.25,0-226.49,0a18.35,18.35,0,0,1-2-.08c-.23-.23-.47-.45-.71-.67C711.44,744.53,711.47,744.29,711.49,744Z" transform="translate(-690.36 -121.81)" fill="#fca5b8"/><path d="M712.49,745.14q45.66,0,91.31-.1,71.36,0,142.71.1l0,.89h-234c-.24-.2-.31-.4-.23-.59S712.41,745.14,712.49,745.14Z" transform="translate(-690.36 -121.81)" fill="#eff5f1"/><path d="M975.42,554.91l.06,17.07c-1.71,1.82-4,1.44-6.1,1.44q-92.83.06-185.68-.09c-5.06,0-10.3.55-15.3-1.13l-.2,0a1.58,1.58,0,0,1,.7-1.7c3-1.52,6.2-1,9.33-1q91.68,0,183.37,0c1.66,0,3.33,0,5,0,5.73-.15,6.11-.55,6.29-6.39.07-2.48-.23-5,.9-7.37A1.35,1.35,0,0,1,975.42,554.91Z" transform="translate(-690.36 -121.81)" fill="#feeff4"/><path d="M773.37,483.1l1-1.25c.6.17.72.78,1.08,1.17l208.06,0c1.62,0,3.25.15,4.87.25.06,0,.16.27.14.4a1.24,1.24,0,0,1-.24.43c-1.77,1.33-3.83.89-5.79.89q-100.78,0-201.58,0c-2.48,0-5,.17-7.3-1A1.71,1.71,0,0,1,773.37,483.1Z" transform="translate(-690.36 -121.81)" fill="#1c5ea9"/><path d="M825.58,580.13l-2.08,0c-5.08,1-10.21.33-15.31.39-11.92.12-23.84.07-35.77,0-1.4,0-3.45,1.07-4.06-1.44,1.56-.87,3.26-.46,4.9-.46,15.17,0,30.35.46,45.5-.11,46-1.73,91.93-.33,137.89-.88,4.94-.06,9.82,1.4,14.84.15,2.31-.57,4.11-1.18,4.88-3.56a3.6,3.6,0,0,1,1.15-1.52c2.31,6.24,1.64,7.32-4.54,7.37-1.15,0-2.3.07-3.45.1-1.08.63-2.27.39-3.42.39H829A7,7,0,0,1,825.58,580.13Z" transform="translate(-690.36 -121.81)" fill="#8badd3"/><path d="M773.64,484l207.69.07c2.33,0,4.66,0,7,.08a7.1,7.1,0,0,1,.22.79l-.14.31c-1.63.54-3.31.28-5,.29q-101.49,0-203,0c-1.65,0-3.34.37-4.92-.42l-1.17,0Z" transform="translate(-690.36 -121.81)" fill="#66a3d6"/><path d="M975.42,554.91l-.93.14a5.92,5.92,0,0,1-1.71,1,22.84,22.84,0,0,1-5.95.37H775.74a28.72,28.72,0,0,1-5.48-.26,4.41,4.41,0,0,1-1.75-.92,1.26,1.26,0,0,1,.37-1.72c2.65-1.45,5.54-.89,8.32-.89q94.32-.06,188.62,0c2.94,0,6.23.61,7.34-3.39a5.75,5.75,0,0,1,.73-1.75,1.16,1.16,0,0,1,1.63-.37C975.49,549.7,975.45,552.31,975.42,554.91Z" transform="translate(-690.36 -121.81)" fill="#bfd4e9"/><path d="M768.4,572.2c1.83-.06,3.66-.16,5.48-.16l201.6-.06,2,.67-.08.49a5.43,5.43,0,0,1-2.56,1.18c-.65.07-1.29.1-1.94.11-62.86-.9-125.72-.1-188.57-.51-5.24,0-10.58.14-15.81-.92A1.32,1.32,0,0,1,768.4,572.2Z" transform="translate(-690.36 -121.81)" fill="#bbc6da"/><path d="M975.52,547.1l-1,0c-1.53,1.27-3.38,1.28-5.22,1.28-66,0-131.92.13-197.89-.08-.66,0,.17,0-.5,0a6.2,6.2,0,0,1-1.91-.58l-.74-.66.22-1c1.87-1.05,3.91-.5,5.86-.5q100.54-.06,201.08,0,1,0,2,0a1,1,0,0,1,.12.72Z" transform="translate(-690.36 -121.81)" fill="#4883bf"/><path d="M949.35,737.81l-56.88.24c-3,0-6,.09-9,.14-2.64,1.32-5.49,1.25-8.31,1.25q-60.5,0-121,0c-2.31,0-4.71.37-6.74-1.24l-6.82-.35c-.08-.23-.16-.47-.23-.7l.22-.44c18-.36,36-.11,53.94-.14q40.73-.07,81.44,0c1.81,0,3.66-.39,5.42.39l68,.12A1.4,1.4,0,0,1,949.35,737.81Z" transform="translate(-690.36 -121.81)" fill="#6b76ab"/><path d="M949.4,774c-1.7-2.58-4.34-2-6.77-2q-93.69,0-187.38,0c-1.93,0-4,.69-5.75-.84,3.34-1.89,7.08-1.48,10.63-1.48q90.3-.13,180.6-.08a30.73,30.73,0,0,1,8.73,1.48Z" transform="translate(-690.36 -121.81)" fill="#fe6886"/><path d="M949.46,771.08l-200,.08a3.54,3.54,0,0,0-1-.13l0-1a62.72,62.72,0,0,1,11.84-1q90.15-.08,180.31,0c2,0,4-.38,5.8.93C947.57,770.14,948.83,769.77,949.46,771.08Z" transform="translate(-690.36 -121.81)" fill="#f9c7d2"/><path d="M946.51,770l-198,0c0-.33,0-.66,0-1h6.92c1.56-.88,3.26-.46,4.9-.46q90.6,0,181.2,0c1.63,0,3.33-.42,4.89.46Z" transform="translate(-690.36 -121.81)" fill="#f2f2f2"/><path d="M794.62,376.24a8.58,8.58,0,0,1-.1-.87c1.31-1.11,2.88-.59,4.33-.59q90.42,0,180.85,0c1.32,0,2.67-.25,3.93.39,1,.24,2.34-.24,2.91,1.15-1.59.77-3.28.4-4.92.4q-91.05,0-182.11,0C797.88,376.7,796.18,377.12,794.62,376.24Z" transform="translate(-690.36 -121.81)" fill="#f7aebf"/><path d="M794.62,376.24l191.92.06a1.25,1.25,0,0,1,0,.93q-93.36,0-186.72,0C798.05,377.21,796.09,377.88,794.62,376.24Z" transform="translate(-690.36 -121.81)" fill="#fe6584"/><path d="M946.48,769h-191c1.83-1.8,4.12-1,6.18-1q92.42-.08,184.81,0C946.49,768.36,946.49,768.7,946.48,769Z" transform="translate(-690.36 -121.81)" fill="#f1e7e8"/><path d="M983.63,375.15l-182.13.09c-2.32,0-4.65.08-7,.13l.13-.19c-.21-.86.08-1.21,1-.94h188C983.62,374.54,983.62,374.84,983.63,375.15Z" transform="translate(-690.36 -121.81)" fill="#f1f2f4"/><path d="M825.58,580.13H969.53c-.51,1.72,1.18,4.33-2,5,1.26-2.42,1.37-4.16-2.18-4.06-3,.09-6,0-9,0q-62.54,0-125.08,0C829.38,581,827.27,581.74,825.58,580.13Z" transform="translate(-690.36 -121.81)" fill="#c5e8fb"/><path d="M813.65,164.34c-10.59,1-17.81,7.26-23.88,15.32-1.66-2.56-3.67-5.07-.88-8.12.31-.34.62-1.18.73-1.15,4.91,1.56,5.14-5,9.07-5.17.34,0,.92.18.88-.66-.11-2.56.17-3,3.28-2.8,5,.33,10,1.06,15,1.62C816.91,165.62,815.21,164.65,813.65,164.34Z" transform="translate(-690.36 -121.81)" fill="#fbfcfb"/><path d="M748.48,782l.1-1c1.48-1.39,3.35-1.33,5.18-1.33,43.26,0,86.53-.18,129.8.1,1.27.29,2.73.33,2.87,2.13l0,.34a8.93,8.93,0,0,1-3.45.3H757.45c-1.31,0-2.66.26-3.91-.4h-4.13A4.08,4.08,0,0,0,748.48,782Z" transform="translate(-690.36 -121.81)" fill="#3da6d8"/><path d="M832.5,591.07c1.62-1.79,3.75-1,5.65-1q59.86-.08,119.73.06c2.22,0,4.51-1.45,6.71.09a1.68,1.68,0,0,1-.08.83c-2,1.2-4.17,1-6.32,1H839.85A19.06,19.06,0,0,1,832.5,591.07Z" transform="translate(-690.36 -121.81)" fill="#81bce6"/><path d="M832.5,591.07l132,0a4.68,4.68,0,0,1,0,1l-1.06.08c-1.25.64-2.61.39-3.92.39H838.45c-1.31,0-2.67.26-3.92-.4l-2.09-.17A8.48,8.48,0,0,0,832.5,591.07Z" transform="translate(-690.36 -121.81)" fill="#abceea"/><path d="M805.48,669.06c-1.67,1.68-3.79.93-5.7.94q-51.16.07-102.33,0c-3.43,0-6.13.25-7,4.12,0-1.71,0-3.42,0-5.13,2-1.05,4.2-.91,6.36-.91H798.15C800.64,668,803.14,668,805.48,669.06Z" transform="translate(-690.36 -121.81)" fill="#f7a279"/><path d="M805.48,669.06,690.37,669a4.32,4.32,0,0,1,.1-1l1.08-.07a7.11,7.11,0,0,1,3.42-.38H800a6.88,6.88,0,0,1,3.42.39l5.07.19C807.72,669.17,806.56,669,805.48,669.06Z" transform="translate(-690.36 -121.81)" fill="#f6bea5"/><path d="M690.4,629c.92,3.82,3.59,4.13,7,4.12q50.17-.2,100.35,0c1.9,0,4-.75,5.69.93-1.52,1.46-3.44,1-5.21,1q-51,0-102.06,0c-2,0-4,.07-5.82-.95Z" transform="translate(-690.36 -121.81)" fill="#fea37a"/><path d="M690.39,634.08,803.48,634c1.38.18,2.91-.34,4.07.86-.95,1-2.18.64-3.31.64q-54.87,0-109.75,0a6.1,6.1,0,0,1-2.93-.36l-1.18-.15A4,4,0,0,1,690.39,634.08Z" transform="translate(-690.36 -121.81)" fill="#e3b8a5"/><path d="M773.4,536.85c-.84,1.41-.85,3.38-3.51,3.22-4.24-.27-7.87,1.83-11.44,3.88l-2.33-3.16c1.13-1.72,2.37.43,3.51-.21.46-1.53-1.81-1.23-1.72-2.5,2.7,1,2.54-3.69,5.86-2.54,7,2.44,7.55,2.06,8-5.26.17-3,2.23-2.51,3.75-3.25.37,2.12-.68,4-1,6a1,1,0,0,1,.44.94,6,6,0,0,1-.61,1.57C774.07,536,774,536.61,773.4,536.85Z" transform="translate(-690.36 -121.81)" fill="#fafbfa"/><path d="M843.65,146.25a27.19,27.19,0,0,1-16.07,15.8c-.85-1.78-2.21-3.43,1.28-4.23,2.7-.62.57-2.66.45-4.23,2-.1,2.09,1.67,2.58,2.95,2.92-2.16,3.82-5.23,4.73-8.3h0c.74.21,2.07.93,2.12,0C839,143.91,841.3,145.17,843.65,146.25Z" transform="translate(-690.36 -121.81)" fill="#fafbfb"/><path d="M780.76,299.92A30.26,30.26,0,0,0,793.82,311c-4.53,3.74-9.48.69-15.55,1.9,2.25-2.52,6-3.39,2.58-5.92C777.55,304.6,779,302.3,780.76,299.92Z" transform="translate(-690.36 -121.81)" fill="#fafcfa"/><path d="M747.47,388.4c.33,1,.67,1.94,1,2.9-2.78,1.23-6.23-1.24-6.69-4.24-.72-4.61.87-5.09,5.29-5,13.49.19,27,1,40.5-.7a3,3,0,0,1,3,1.68l-44,.33a.62.62,0,0,1-1,.14C744.29,385.86,743.85,387.9,747.47,388.4Z" transform="translate(-690.36 -121.81)" fill="#f7fafa"/><path d="M742.45,675.18l66,0q.49.24.33.48c-.1.16-.21.25-.33.25l-66,0Q742.47,675.54,742.45,675.18Z" transform="translate(-690.36 -121.81)" fill="#dddae5"/><path d="M727.33,788.93c.52-.4,1-.81,1.57-1.19,8.83-6,8.83-6,17.67.1-3.35.63-6.9,2.93-9.65-1.25-.71-1.08-1.53-1.2-2.15.15-.41.88-5.78,4.15-6.56,3.8C727.76,790.33,727.61,789.49,727.33,788.93Z" transform="translate(-690.36 -121.81)" fill="#fafcfa"/><path d="M1007.46,397.28c0-.68.09-1.36.13-2,1.91,1.95.93,4.4,1,6.61.15,5.61,0,11.24.07,16.86.07,3.19-.22,6.21-2.78,8.94,2.71.39,2.49-2.26,3.94-2.74.21,5.67.21,5.67-5.24,8.13,3.86-3.6-.25-4.11-1.05-5.87,2-3,4.33-6,4-10A109.76,109.76,0,0,1,1007.46,397.28Z" transform="translate(-690.36 -121.81)" fill="#f8fbfb"/><path d="M888.69,242.27a38.22,38.22,0,0,0-13,11c-1.94-1.15-.75-2.72-.37-4,.3-1,1.47-1.77,1.16-3.09-1.07-4.46.4-5.39,4.52-3.55C883.46,243.77,886,240.7,888.69,242.27Z" transform="translate(-690.36 -121.81)" fill="#fbfbfa"/><path d="M918.6,332.26l-3.06-1-6.92-4.13,15.93-6.06c-1.74,2.21-2.1,6-6.21,5.53.32,1.07-5.2,1-.55,3C918.87,330,918.54,331.3,918.6,332.26Z" transform="translate(-690.36 -121.81)" fill="#fafbfb"/><path d="M768.44,579.15c1.55,1.44,3.47.86,5.23.86q24.92.09,49.83.08l-2,1.94c-1.46-1.64-3.41-1-5.14-1-14.89,0-29.79,0-44.68-.06-1.74,0-3.68.64-5.17-.93l1-.8,0-.47A.61.61,0,0,1,768.44,579.15Z" transform="translate(-690.36 -121.81)" fill="#9cceef"/><path d="M825.57,210.23c-.24-2.85,1.67-4.77,3-7,2.14-1.74,4.14-3.72,7-4.32a6.32,6.32,0,0,0-.45,1.42C834.77,205.48,835,211,827,209,826.65,208.86,826.05,209.78,825.57,210.23Z" transform="translate(-690.36 -121.81)" fill="#fafbfb"/><path d="M793.81,311A90.76,90.76,0,0,1,809,317.11c-3.43.35-7.54,5.31-9.43-1.75-2.17.9-.08,2.85-1.59,3.45-1,.38-2.1,1.38-2-1.12C796,315.38,793.4,313.6,793.81,311Z" transform="translate(-690.36 -121.81)" fill="#fafcfa"/><path d="M941.63,355.23l0-6.93a13,13,0,0,1,5.81-1.09c10.5.06,21,0,31.49.05,1.62,0,3.37-.35,4.73,1l0,1c-10.8,0-21.61.22-32.4-.1C946.29,349,942.12,348.93,941.63,355.23Z" transform="translate(-690.36 -121.81)" fill="#f1f0f3"/><path d="M745.62,432c.11-1.59-.38-3.68,2.15-3.69,13.05-.05,26.11,0,39.15.95-11.94,0-23.87,0-35.81,0-2,0-4.66-.7-4.49,2.86Z" transform="translate(-690.36 -121.81)" fill="#2f93d0"/><path d="M983.63,348.27l-42,0-1-.94,3.09-.23c7.54-.87,15.12-.31,22.67-.32,6.74,0,13.49-.55,20.21.35C985.94,348.49,984.68,348.11,983.63,348.27Z" transform="translate(-690.36 -121.81)" fill="#f4c4ce"/><path d="M982.62,438.24c-1.8-1.79,0-2.29,1.09-3,1.41,1.74.79,3.81.8,5.73q.09,14.61,0,29.24c0,1.75.55,3.66-.84,5.22-1.2-6.57-.22-13.2-.54-19.8C982.86,449.81,983.73,444,982.62,438.24Z" transform="translate(-690.36 -121.81)" fill="#fe6e8a"/><path d="M787.85,270.45l-7,7.9c-4.41-6,1.06-8.2,4.49-11.46C785.31,268.82,785.07,270.82,787.85,270.45Z" transform="translate(-690.36 -121.81)" fill="#f8faf9"/><path d="M986.55,347.16l-42.88,0a3.29,3.29,0,0,1,3-1.32c13.26,1,26.54.15,39.81.43A1.22,1.22,0,0,1,986.55,347.16Z" transform="translate(-690.36 -121.81)" fill="#fe6686"/><path d="M934.45,317.08a52.07,52.07,0,0,1,11.17-4.67c1.51,5.68.49,6.65-5.44,5.37C938.31,317.38,936.36,317.31,934.45,317.08Z" transform="translate(-690.36 -121.81)" fill="#f8fafb"/><path d="M982.62,438.24c2.24.62.89,2.42.9,3.5.17,11.21.13,22.43.15,33.65l-.93,1.25c0-10.6-.29-21.2,0-31.78C982.85,442.62,980.27,440.44,982.62,438.24Z" transform="translate(-690.36 -121.81)" fill="#fc6886"/><path d="M995.32,663a55.21,55.21,0,0,1,.12-21.92A49.59,49.59,0,0,1,995.32,663Z" transform="translate(-690.36 -121.81)" fill="#fd6886"/><path d="M784.8,435.31c1.56,2.08.75,4.48.77,6.72.1,10.73,0,21.47,0,32.21l-.85,1A368.61,368.61,0,0,1,784.8,435.31Z" transform="translate(-690.36 -121.81)" fill="#fd6286"/><path d="M716.38,627.9l-25.9.06c5-2.07,10.32-.6,15.48-.85,3-.15,4.74-1,4.59-4.21Z" transform="translate(-690.36 -121.81)" fill="#f6faf8"/><path d="M981.51,675.06a27.81,27.81,0,0,0,10-5.08c.23.72,1,1.67.25,2.16-3,2,.47,2.44.78,3.62l-11,.09c-.33-.18-.44-.35-.33-.53S981.39,675.06,981.51,675.06Z" transform="translate(-690.36 -121.81)" fill="#fbf6f6"/><path d="M709.56,590.07c2,7,.5,14.24.86,21.36.1,2.17.9,4.6-.9,6.58Q709.54,604,709.56,590.07Z" transform="translate(-690.36 -121.81)" fill="#7ebce5"/><path d="M724.6,693.06a82.35,82.35,0,0,1-.05,27A156.49,156.49,0,0,1,724.6,693.06Z" transform="translate(-690.36 -121.81)" fill="#1159a3"/><path d="M997.51,813c-2.32-7.27-.35-14.65-1.07-22l1.23,0v21.32A.48.48,0,0,1,997.51,813Z" transform="translate(-690.36 -121.81)" fill="#125ba4"/><path d="M804.59,228.39l10.33,2.73c-3.36,2.74-6.65-.29-10-.24C803.9,230.9,804,229.34,804.59,228.39Z" transform="translate(-690.36 -121.81)" fill="#f7fafa"/><path d="M875.38,254.15c-.75,1.29-1.45,2.6-2.24,3.86-1.92,3-2.64,1.08-3.34-.84C871.91,256.64,871.71,251.83,875.38,254.15Z" transform="translate(-690.36 -121.81)" fill="#fbfbfa"/><path d="M823.74,163.5a2.12,2.12,0,0,1-.21.69c-1.82.82-3.54,1-4.91-.82-.84-1.62-2.67-.83-4.27-1.52C820.71,160.75,821,160.8,823.74,163.5Z" transform="translate(-690.36 -121.81)" fill="#fbfcfb"/><path d="M1002.56,490.87V507c-.57-5.65-2.12-11.33-.18-16.92A.69.69,0,0,1,1002.56,490.87Z" transform="translate(-690.36 -121.81)" fill="#195fa7"/><path d="M798.56,224.48l4.07,2.7c-1.31,4.42-3.77-1.52-5.34.59C796.18,226.09,798.31,225.65,798.56,224.48Z" transform="translate(-690.36 -121.81)" fill="#f7fafa"/><path d="M929.35,319.13a10.31,10.31,0,0,1,5.09-2.08c.18,1.1,2.07,1.63,1.27,2.89-.7,1.09-2,.86-3.12.31A27.52,27.52,0,0,0,929.35,319.13Z" transform="translate(-690.36 -121.81)" fill="#f8fafb"/><path d="M710.51,777c5-1.42,10-1.71,15,.13Z" transform="translate(-690.36 -121.81)" fill="#fc6483"/><path d="M966.68,778.81l-4.24-1.61,14.11,0a7.9,7.9,0,0,1-.27,1C973.08,778.36,969.78,777.19,966.68,778.81Z" transform="translate(-690.36 -121.81)" fill="#71a5d2"/><path d="M694.4,754a7.33,7.33,0,0,1,.1,8A10,10,0,0,1,694.4,754Z" transform="translate(-690.36 -121.81)" fill="#fc6484"/><path d="M805.6,267.31a9.62,9.62,0,0,1-9,0A12.85,12.85,0,0,1,805.6,267.31Z" transform="translate(-690.36 -121.81)" fill="#1258a4"/><path d="M818.62,163.37l4.91.82c-3.26,1.81-6.56,1.41-9.88.15l4.24-1A.46.46,0,0,0,818.62,163.37Z" transform="translate(-690.36 -121.81)" fill="#1059a1"/><path d="M757.3,545c-.92,1-1.84,2.09-2.77,3.13-.3-1-2.45-1.26-1.56-2.65C754,543.78,755.77,544.43,757.3,545Z" transform="translate(-690.36 -121.81)" fill="#f9fbfa"/><path d="M750.13,553.12c.18-1-3.65-.7-2.32-3.08.15-.27,1.19-.26,1.71-.08C751.84,550.79,749.89,552.6,750.13,553.12Z" transform="translate(-690.36 -121.81)" fill="#f9fbfa"/><path d="M793.93,267.36l-6.15,3.16C788.82,267.49,790.74,266.19,793.93,267.36Z" transform="translate(-690.36 -121.81)" fill="#f8faf9"/><path d="M952.55,777.19a4.59,4.59,0,0,1-.16.9c-3.19-.37-6.45.41-9.61-.54l6.93-.61Z" transform="translate(-690.36 -121.81)" fill="#6a96c7"/><path d="M924.61,336.25a5.54,5.54,0,0,1-4-2C922,334.86,925.82,330.56,924.61,336.25Z" transform="translate(-690.36 -121.81)" fill="#fafbfb"/><path d="M920.62,334.23l-1-1c1-1.05-.19-3,1.69-3.81C923.45,331.4,921.24,332.72,920.62,334.23Z" transform="translate(-690.36 -121.81)" fill="#fafbfb"/><path d="M785.68,193.26a7.83,7.83,0,0,1,0,8A18.12,18.12,0,0,1,785.68,193.26Z" transform="translate(-690.36 -121.81)" fill="#1058a3"/><path d="M754.54,548.06l-1.74,3.08L750.49,550C751.26,548.19,752.8,547.92,754.54,548.06Z" transform="translate(-690.36 -121.81)" fill="#f9fbfa"/><path d="M750.57,813.17c.35.62.69,1.25,1,1.88a1.6,1.6,0,0,1-.18,2.37,3.5,3.5,0,0,1-2.59.41,3.36,3.36,0,0,1-1.14-.67,4,4,0,0,1-.46-.24C748.64,815.92,750.52,815.35,750.57,813.17Z" transform="translate(-690.36 -121.81)" fill="#94c4e7"/><path d="M884.58,125.29l-4-2C882.33,123.12,885,121.15,884.58,125.29Z" transform="translate(-690.36 -121.81)" fill="#f6f9fa"/><path d="M995.35,432.14l4.27-1.7C999.72,434.82,996.92,431.94,995.35,432.14Z" transform="translate(-690.36 -121.81)" fill="#f8fbfb"/><path d="M869.53,256.39a4.27,4.27,0,0,1-2-3.11C870.26,253,870.91,254.05,869.53,256.39Z" transform="translate(-690.36 -121.81)" fill="#fbfbfa"/><path d="M751.36,556.05l0,7A6.57,6.57,0,0,1,751.36,556.05Z" transform="translate(-690.36 -121.81)" fill="#f9fbfa"/><path d="M990.46,778.16c-1.88,1.52-4,.81-6.12.63,1-1.21,2.2-.54,3.22-.79Z" transform="translate(-690.36 -121.81)" fill="#175ba6"/><path d="M836.62,148.24c-.91-.59-2.18-1-1.39-2.48a1.36,1.36,0,0,1,1.26-.3c1.74.8.29,1.83.13,2.78Z" transform="translate(-690.36 -121.81)" fill="#fafbfb"/><path d="M867.55,253.29a4.49,4.49,0,0,1-2.12-3C867.51,250.33,868.79,250.91,867.55,253.29Z" transform="translate(-690.36 -121.81)" fill="#fbfbfa"/><path d="M846.81,195.33l-3-.45c2.13-.85,3.51-1,4.75.27Z" transform="translate(-690.36 -121.81)" fill="#1459a0"/><path d="M886.23,126.43l-1.66-1.15c.85-.17,1.71-1.42,2.55-.26C887.55,125.63,886.83,126.13,886.23,126.43Z" transform="translate(-690.36 -121.81)" fill="#f6f9fa"/><path d="M1001.39,689.87c0,10.56.14,21.11,0,31.67a15.27,15.27,0,0,0,2,8.49c-1.72.93-3.58.46-5.37.46q-49.58.06-99.15,0c-1.81,0-3.65-.26-5.44.28l0,.45c-6.29-.88-9.56-5.12-11.78-10.54-1.54-5.83-.42-11.76-.59-17.64,1.34-10.2,6.07-14.55,16.45-14.58q48.82-.15,97.65,0C997.36,688.48,999.58,688.31,1001.39,689.87Z" transform="translate(-690.36 -121.81)" fill="#f2e9ec"/><path d="M1001.39,689.87,898,690.06c-2.65,0-5.26-.08-7.83,1.08-5.24,2.37-7.54,6.67-8.48,12a16.86,16.86,0,0,1-.06-10.09c3-8.39,9.2-11.15,17.84-11.09,35.06.28,70.12.19,105.18.23A13,13,0,0,0,1001.39,689.87Z" transform="translate(-690.36 -121.81)" fill="#88bfe8"/><path d="M881.45,737q-68.66,0-137.33,0c-1.16,0-2.32-.2-3.47-.3,1.65-1.21,3.55-.65,5.33-.65q66.75,0,133.49,0l1.91.05A4.26,4.26,0,0,1,881.45,737Z" transform="translate(-690.36 -121.81)" fill="#1260a9"/><path d="M981.51,675.06c0,.26,0,.53,0,.79h-96c-.33-.16-.44-.31-.33-.47s.22-.24.33-.24Z" transform="translate(-690.36 -121.81)" fill="#dedee8"/><path d="M885.49,675.15v.71l-3.06.33L814,676c-1.83,0-3.66-.11-5.49-.16,0-.25,0-.49,0-.73l3-.28q33,.07,66,.15C880.2,675,882.85,675.1,885.49,675.15Z" transform="translate(-690.36 -121.81)" fill="#dcd5e5"/><path d="M881.59,693.05l.06,10.09.06,17.58c-.73.59-1.2.37-1.21-.52-.14-8.63-.28-17.27-.31-25.9C880.18,693.88,881.1,693.46,881.59,693.05Z" transform="translate(-690.36 -121.81)" fill="#298fce"/><path d="M893.51,730.81c1.78-1.37,3.85-.75,5.78-.75q52.1-.06,104.18,0l0,.84Z" transform="translate(-690.36 -121.81)" fill="#fdefef"/><path d="M818.66,432.07h-1.09c-1.64-1.62-3.86-.31-6.6-1.48H945.76c-1.88,1.17-3.68.61-5.37.62q-58,.06-116,.06C822.5,431.27,820.41,430.59,818.66,432.07Z" transform="translate(-690.36 -121.81)" fill="#1b63aa"/><path d="M968.62,474.24c-.07.63-.13,1.26-.19,1.9h-.81V457.77c0-6.63,0-13.26,0-19.89,0-1.58.59-3.37-1.06-4.61-4,2.55-8.49,1-12.77,1.32a7.09,7.09,0,0,1-1.7-.38,7.42,7.42,0,0,1-1.44-1c0-.26,0-.52,0-.78h18v2.78a10.1,10.1,0,0,1,1.59,5.64c0,9.44.08,18.87,0,28.3C970.15,471,970.12,472.86,968.62,474.24Z" transform="translate(-690.36 -121.81)" fill="#fc6888"/><path d="M1007.46,397.28a144.23,144.23,0,0,1,.08,19.94A46.72,46.72,0,0,1,1007.46,397.28Z" transform="translate(-690.36 -121.81)" fill="#165da7"/><path d="M829.72,243.24C837.65,245.3,844.41,250,852,253c5.84,2.31,11.47,5.19,17.08,8,2.06,1,3.63.69,5.56-.23q16.35-7.81,32.81-15.41a59.33,59.33,0,0,1,6.07-2.06q.07,18.07.16,36.16-20,12.06-40,24.13a3.61,3.61,0,0,1-4.15,0q-19.95-12.12-40-24.15Q829.64,261.35,829.72,243.24Z" transform="translate(-690.36 -121.81)" fill="#fe6e8a"/><path d="M861.7,345.5c6.61-3.8,13.21-3.84,19.81,0a1.49,1.49,0,0,1-1.08,1.48,52.1,52.1,0,0,1-17.66,0A1.48,1.48,0,0,1,861.7,345.5Z" transform="translate(-690.36 -121.81)" fill="#f86e8b"/><path d="M857.65,348.28l-3.09-.17c.76-.93,1.85-.89,2.89-1a219.36,219.36,0,0,1,28.32,0c1,.1,2.1.07,2.86,1l-.17.32A243.65,243.65,0,0,1,857.65,348.28Z" transform="translate(-690.36 -121.81)" fill="#f0c3ce"/><path d="M885.77,347.11H857.45l4.25-1.61a55.64,55.64,0,0,0,19.81,0Z" transform="translate(-690.36 -121.81)" fill="#f66885"/><path d="M937.64,267.31a13.05,13.05,0,0,1,9,0A9.6,9.6,0,0,1,937.64,267.31Z" transform="translate(-690.36 -121.81)" fill="#1059a4"/><path d="M924.5,500.06c2.11,5.79.57,11.78.87,17.66.17,3.25,1.55,7.91-.63,9.45s-5.2-2.41-7.83-4c-1.75-1-3.07-.56-4.59.27-2.59,1.42-5.24,2.75-8.66,4.53,0-9.13,0-17.49,0-25.85,0-1.16.9-1.69,1.82-2.14A74.66,74.66,0,0,1,924.5,500.06Z" transform="translate(-690.36 -121.81)" fill="#fe6e8b"/><path d="M773.58,535.08l.9-1.23a73.1,73.1,0,0,1,12.89-.83c34.77,0,69.54-.39,104.3.14,30.6.46,61.2.15,91.79.39a7.79,7.79,0,0,1,3,.3l1.12.33a6.81,6.81,0,0,0,0,.78c-6.23,1.06-12.55,1-18.8,1q-91.63.22-183.26.09A81,81,0,0,1,773.58,535.08Z" transform="translate(-690.36 -121.81)" fill="#618cbd"/><path d="M986.42,533.85c-20.33.06-40.65.16-61,.17q-72.48,0-145,0c-2,0-4-.11-6-.17,0-.27,0-.55,0-.82h4c1-.74,2.24-.47,3.38-.47H897.09c1.14,0,2.34-.24,3.39.47q40.1,0,80.19,0C982.59,533.07,984.67,532.38,986.42,533.85Z" transform="translate(-690.36 -121.81)" fill="#fcf0f0"/><path d="M900.48,533h-122c.15-.9.44-1.29,1.59-1.29q57.36.21,114.73.33C896.71,532.07,898.83,531.31,900.48,533Z" transform="translate(-690.36 -121.81)" fill="#eee8ea"/><path d="M996.32,503.17q.13-4.57.28-9.15c1.63,2.16.48,4.68.87,7a114,114,0,0,1,0,24l-.81,0c-.11-.36-.21-.73-.32-1.1a115.55,115.55,0,0,1,0-18.88Z" transform="translate(-690.36 -121.81)" fill="#5284ba"/><path d="M924.5,500.06l-19,0A37.67,37.67,0,0,1,924.5,500.06Z" transform="translate(-690.36 -121.81)" fill="#f2f2ef"/><path d="M996.33,505.09q0,9.44,0,18.88A43.72,43.72,0,0,1,996.33,505.09Z" transform="translate(-690.36 -121.81)" fill="#faeeee"/><path d="M889.16,673.89H819.82v-.5h69.53Z" transform="translate(-690.36 -121.81)" fill="#fc6a87"/><path d="M940.63,778c5.64,2.47,8.25,6.65,8,12.92a163.28,163.28,0,0,0,0,16.85A14.07,14.07,0,0,1,943.48,820c-1.45.83-3,.51-4.46.21-11.53-.49-23.06-.06-34.6-.22-2.12,0-4.28.29-6.37-.4-1.19-.69-.74-1.64-.42-2.58,3.91-11.77,3.7-23.55.13-35.34-.32-1.07-1.08-2.15.14-3.16,8.2-1.14,16.44-.24,24.65-.49,5.43-.17,10.88.19,16.31-.19A1.86,1.86,0,0,1,940.63,778Z" transform="translate(-690.36 -121.81)" fill="#2063a9"/><path d="M983.29,850.93c-.56,7.33-8.38,14.29-15.64,13.92-7.66-.4-14.85-8.46-14.11-15.82s8.44-14.46,15.09-13.94C977.05,835.76,983.88,843.14,983.29,850.93Z" transform="translate(-690.36 -121.81)" fill="#afdcf3"/><path d="M875.49,876c.35-2.47,2.29-2,3.87-2q52.7,0,105.39.06c1,0,3.83-1.49,2.74,1.92-1.22.79-2.59.47-3.9.47q-52.1,0-104.21,0C878.07,876.5,876.71,876.82,875.49,876Z" transform="translate(-690.36 -121.81)" fill="#8abfeb"/><path d="M939.48,820h4c-1.65,1.74-3.78,1-5.68,1q-35.24.15-70.46.16l-2.94,0a7.27,7.27,0,0,1-3.43.37q-54.79,0-109.6,0c-1.3,0-2.67.33-3.88-.49l.09-1.1c1.67-1.48,3.72-1.27,5.7-1.28q69.59,0,139.16,0a12.59,12.59,0,0,1,4,.39c5.57,1.14,11.22.3,16.82.51C922,819.86,930.75,819,939.48,820Z" transform="translate(-690.36 -121.81)" fill="#74c2e8"/><path d="M940.63,778l-1.26.2c-12.52.71-25,.13-37.57.3-2.15,0-4.29-.07-6.33.79-20.29.36-40.59.11-60.89.15q-39.44.07-78.87,0c-2.45,0-5,.49-7.16-1.37,0-.34,0-.69,0-1l6-.14c2-1,4.21-.84,6.36-.84q58.59,0,117.17,0c4.47,0,8.93.38,13.38.81q21.36.11,42.73.24c2.15,0,4.29.24,6.43.37C940.61,777.66,940.62,777.83,940.63,778Z" transform="translate(-690.36 -121.81)" fill="#6e83b4"/><path d="M875.49,876h112c-.83,1.09-2,1-3.18,1H877a4.87,4.87,0,0,1-1.42-.2C875.49,876.79,875.52,876.31,875.49,876Z" transform="translate(-690.36 -121.81)" fill="#84bde8"/><path d="M983.42,813c-2-4.1-.84-8.47-.83-12.68,0-4.72-1.1-9.56.82-14.18l.16-.14a83.72,83.72,0,0,1,0,27.13Z" transform="translate(-690.36 -121.81)" fill="#90c7ec"/><path d="M959.64,787l.84.06a125.81,125.81,0,0,1,0,25h-1.15a129.31,129.31,0,0,1,.08-20.92Z" transform="translate(-690.36 -121.81)" fill="#4080ba"/><path d="M972.67,787.07l.84,1a122.38,122.38,0,0,1,0,24H972.3a216.33,216.33,0,0,1,0-25Z" transform="translate(-690.36 -121.81)" fill="#68a4d5"/><path d="M973.48,812l0-24c2.07,7.9.62,15.93.78,23.89,0,.08-.22.22-.34.23A1.4,1.4,0,0,1,973.48,812Z" transform="translate(-690.36 -121.81)" fill="#8fc4ec"/><path d="M959.39,791.09q0,10.45-.08,20.92A51.9,51.9,0,0,1,959.39,791.09Z" transform="translate(-690.36 -121.81)" fill="#8ec3eb"/><path d="M956.25,819c3.38.67,7-1,10.23,1.06-3.48.12-7,.61-10.41-.28-.05,0-.08-.25-.05-.36A1.92,1.92,0,0,1,956.25,819Z" transform="translate(-690.36 -121.81)" fill="#195ba4"/><path d="M868.5,876.06a7.11,7.11,0,0,1,.92-.06h2.9C871,876.89,869.69,877.54,868.5,876.06Z" transform="translate(-690.36 -121.81)" fill="#84bde8"/><path d="M952.76,433.38l13.78-.11c.06,13.39,0,26.79.25,40.18.05,3.24-1.3,3.95-4.13,3.78-3.3-.18-6.61-.08-9.92-.1a2.44,2.44,0,0,1-.58-1.67c-.09-12.62.51-25.24-.34-37.85C951.64,436.09,951.44,434.57,952.76,433.38Z" transform="translate(-690.36 -121.81)" fill="#f2e8eb"/><path d="M804.8,433.34c4.43.24,10.08-1.87,13,.86s.86,8.47,1,12.88c.17,8.44-.11,16.9.12,25.34.1,3.58-.74,5.25-4.64,4.84-3.11-.32-6.29-.1-9.43-.12a2.37,2.37,0,0,1-.61-1.66c.31-13.49-.27-27,.31-40.48A1.7,1.7,0,0,1,804.8,433.34Z" transform="translate(-690.36 -121.81)" fill="#f2e8ec"/><path d="M968.62,474.24v-39c1.35.7,2.79,1.43,4.28.75,4.19-1.93,5.63.45,6.8,3.9,1.71,5.06.66,10.24.88,15.35.18,4.16-.31,8.37.14,12.48.39,3.54-1.05,6.67-3.34,8.07C974.85,477.34,971.23,476.6,968.62,474.24Z" transform="translate(-690.36 -121.81)" fill="#fe6e8a"/><path d="M952.76,433.38c0,1.31,0,2.61,0,3.91.67,13,.6,25.91,0,38.86a6.41,6.41,0,0,0,0,1l-1.09.1c-1.19-8.38-.41-16.81-.44-25.22,0-6.24-.78-12.53.47-18.75Z" transform="translate(-690.36 -121.81)" fill="#fa9daf"/><path d="M804.77,476.15a4.1,4.1,0,0,0,0,1l-1.12.09c-1.17-6.22-.44-12.5-.44-18.74,0-7.74-.63-15.51.37-23.24.09-.85.26-1.64,1.23-1.91a3.22,3.22,0,0,0,0,1Q805.58,455.23,804.77,476.15Z" transform="translate(-690.36 -121.81)" fill="#f992a8"/><path d="M951.68,433.26l0,44c-1.69-1.44-1-3.4-1-5.14-.06-12.95,0-25.9,0-38.85Z" transform="translate(-690.36 -121.81)" fill="#fe6684"/><path d="M803.57,435.25q0,21,.07,42a2,2,0,0,1-1-2v-40Z" transform="translate(-690.36 -121.81)" fill="#fe6785"/><path d="M819.89,474V434.31h.49V474Z" transform="translate(-690.36 -121.81)" fill="#fe6687"/><path d="M855.68,835.94l1.73.24c-1.06,1.15-2.46.84-3.75.84H734.85a2.7,2.7,0,0,1-2.32-1.08Z" transform="translate(-690.36 -121.81)" fill="#f8ecec"/><path d="M726.41,770.05v1a4.77,4.77,0,0,0-1,.11c-5,.27-9.95,1.19-14.85-.48a.5.5,0,0,0-.1-.53,8,8,0,0,1-1.54-6.1c.52-6.33-1.56-12.88,1.5-19l1-.27.12.4c1,6.5.16,13,.46,19.55.08,1.77-.49,3.61.49,5.29h1A36.08,36.08,0,0,1,726.41,770.05Z" transform="translate(-690.36 -121.81)" fill="#f7c5d1"/><path d="M712.48,770c-2.15-3.34-.74-7-.93-10.53-.26-4.76,0-9.54,0-14.31a2.22,2.22,0,0,1,1,0V746Q712.49,758,712.48,770Z" transform="translate(-690.36 -121.81)" fill="#faf0f1"/><path d="M747.48,761.05a41.47,41.47,0,0,1-20,0Z" transform="translate(-690.36 -121.81)" fill="#82bbe9"/><path d="M726.41,770.05l-12.9,0c4.16-2.14,8.61-.43,12.9-1Z" transform="translate(-690.36 -121.81)" fill="#f2f2f2"/><path d="M834.53,592.11h128.9c-1.52,1.54-3.47.88-5.22.88q-59.24.06-118.46,0C838,593,836.05,593.66,834.53,592.11Z" transform="translate(-690.36 -121.81)" fill="#f8f4f3"/><path d="M795.62,374.24l-1,.94-.46,0h-.46a5.38,5.38,0,0,1-1.56-3.56c-.27-6.61-.26-13.23,0-19.84a5.77,5.77,0,0,1,1.47-3.61,2.53,2.53,0,0,1,.78,0,12,12,0,0,1,7.22.13c0,.31,0,.63,0,.95-4.63-.79-6.42.9-6.1,5.8C795.93,361.41,795.62,367.83,795.62,374.24Z" transform="translate(-690.36 -121.81)" fill="#f7f0f0"/><path d="M857.65,348.28l30.81.11c-1.64,1.49-3.52,1-5.5,1-6.72-.2-13.46-.06-20.19-.14C861,349.18,859.12,349.86,857.65,348.28Z" transform="translate(-690.36 -121.81)" fill="#f2f1f2"/><path d="M775.48,483l-1.08-1.17c-.16-4.12,2.75-3.81,5.47-3.81l80.87,0,115.32.05c1.15,0,2.31-.14,3.47-.22l-.09.42.11.67-.06,1a3.06,3.06,0,0,1-4,0c-4.41.63-8.83.6-13.29,1.6-3.13.69-7.2-2.87-10.92-1.53-11.78,4.26-23.87.79-35.76,1.85-2.7.24-6.06-1.49-7.9-1.22-6.66,1-13.28-1.43-19.76.43-1.87.53-3.59,2-5.07-.52-.52-.89-1.48-.7-2.24-.6-13.16,1.84-26.3-.76-39.48-.16s-26.63-.4-39.9.36c-6.64.38-13.14-.89-19.71-.22a2.77,2.77,0,0,1-2.47.81A3.21,3.21,0,0,0,775.5,482C775.49,482.37,775.49,482.69,775.48,483Z" transform="translate(-690.36 -121.81)" fill="#2868ad"/><path d="M827.49,578c-.12-.74-.81-1.72.53-1.93a23.74,23.74,0,0,1,3.48-.07H958.61c2.49,0,5-.23,6.88,2-1.39.86-2.93.48-4.39.48q-64.62,0-129.22,0C830.41,578.5,828.87,578.88,827.49,578Z" transform="translate(-690.36 -121.81)" fill="#2163ab"/><path d="M974.43,573.18l1.11,0c2.48,4.13,2,5.24-2.28,5.26-1.92,0-3.92.53-5.77-.46-1.63-3.34-4.74-3-7.65-3q-31.94,0-63.88,0-55.4,0-110.8,0c-1.9,0-4,.76-5.67-1,1.72-.92,3.59-.46,5.38-.46q91.82,0,183.62,0C970.47,573.53,972.49,573.89,974.43,573.18Z" transform="translate(-690.36 -121.81)" fill="#2163ab"/><path d="M773.58,535.08,980,535c2.5,0,5,0,7.5-.07-4.17,2.36-8.7.45-13,1.08-1.56.87-3.26.46-4.9.46q-92.6,0-185.19,0c-1.64,0-3.34.41-4.9-.46-1.82.41-4.52-1.24-5,2.22-.13.92-.56,1.18-.89,0a8.7,8.7,0,0,1-.17-1.46Z" transform="translate(-690.36 -121.81)" fill="#155aa4"/><path d="M967.49,578c1.61,0,3.24-.08,4.85,0,4,.27,5.14-1.23,3.2-4.83l1.9-.08c1.14,4.93-1,6-5.74,6q-98.88-.21-197.77-.08c-1.83,0-3.66.06-5.49.09l-1-.35c1.61-1.29,3.51-.74,5.28-.75q27.36-.06,54.72,0h140Z" transform="translate(-690.36 -121.81)" fill="#165ea7"/><path d="M976.51,545.88c-10.8,0-21.61.14-32.42.15q-87.8,0-175.6.05c1.79-1.89,4.09-1,6.15-1Q875.56,545,976.47,545c.3.18.41.37.32.56S976.61,545.88,976.51,545.88Z" transform="translate(-690.36 -121.81)" fill="#195ca9"/><path d="M974.43,573.18c-1.74,1.52-3.83.82-5.75.82q-94.6.06-189.19,0-5.84,0-11.66,0c-.09,0-.18-.21-.27-.32l1-.68,199.88,0C970.44,573,972.43,573.13,974.43,573.18Z" transform="translate(-690.36 -121.81)" fill="#165ea7"/><path d="M779.49,536h195c-1.48,1.63-3.43,1-5.18,1q-92.31.06-184.63,0C782.92,537,781,537.67,779.49,536Z" transform="translate(-690.36 -121.81)" fill="#2165ad"/><path d="M768.45,554a1.85,1.85,0,0,0,0,1,18.46,18.46,0,0,1,0,16c-.09.38-.17.75-.26,1.13-6.34-1.51-9.74-5.5-10-11.73-.28-6.91,2.9-11.13,10-13.35l0,.21c1.78,1.5,1.54,3.42,1.1,5.37A6.17,6.17,0,0,1,768.45,554Z" transform="translate(-690.36 -121.81)" fill="#fa6e8c"/><path d="M997.44,525l0-24A57,57,0,0,1,997.44,525Z" transform="translate(-690.36 -121.81)" fill="#145ca5"/><path d="M979.55,479a4.93,4.93,0,0,0-.11-.67,30.37,30.37,0,0,1,9,0C985.6,479.8,982.52,478.72,979.55,479Z" transform="translate(-690.36 -121.81)" fill="#1058a4"/><path d="M775.5,482c.41-1.55.39-3.74,3-2a1.37,1.37,0,0,1,0,2Z" transform="translate(-690.36 -121.81)" fill="#1c69a0"/><path d="M757.27,557.28v6C756.27,560.37,756.4,558.77,757.27,557.28Z" transform="translate(-690.36 -121.81)" fill="#1262a9"/><path d="M975.51,480.05l4,0C978.17,483.34,976.84,482,975.51,480.05Z" transform="translate(-690.36 -121.81)" fill="#175da8"/><path d="M778.48,482c0-.67,0-1.34,0-2l3,0C781.39,482.07,779.94,482.05,778.48,482Z" transform="translate(-690.36 -121.81)" fill="#1c5ea9"/><path d="M976.51,545.88c0-.28,0-.57,0-.86.08-1,.16-2,.23-3.07l.71,0v3.61A1,1,0,0,1,976.51,545.88Z" transform="translate(-690.36 -121.81)" fill="#0f559f"/><path d="M897.42,779.06a16.21,16.21,0,0,1,4.2,12.64,111.89,111.89,0,0,0,0,15.32c.3,4.69-.52,8.76-4.07,12a2.06,2.06,0,0,1-1.32.46c-1.4,0-2.8,0-4.2,0-1.58-1.1-1.53-2.76-1.51-4.42,4.38-3.8,4.11-8.88,3.83-14,0-2.8.13-5.61.11-8.41-.05-6.14-1.92-8.63-8-10.85l-1.95-.89a.93.93,0,0,1,.15-1.32c3.08-1.27,6.31-.29,9.45-.67a8.19,8.19,0,0,0,1.39-.3A1.86,1.86,0,0,1,897.42,779.06Z" transform="translate(-690.36 -121.81)" fill="#0995d3"/><path d="M890.51,815.08c1.48,1,1.4,2.45,1,3.95-1.55.89-3.25.47-4.88.47q-66.52,0-133.07,0c-1.73,0-4,1.3-5.26-1.28a31.3,31.3,0,0,1,11.21-1.57c41.77,0,83.54.11,125.3-.05a9.93,9.93,0,0,0,1.8-.29l.88-.26Z" transform="translate(-690.36 -121.81)" fill="#0e97d5"/><path d="M751.57,815.92a2,2,0,0,1,0-.87q65.32,0,130.66,0c1.74,0,3.69-.67,5.19.94l.09.1c-1.78,1.28-3.84.91-5.81.91q-62.22,0-124.45,0C755.34,817,753.25,817.47,751.57,815.92Z" transform="translate(-690.36 -121.81)" fill="#feecee"/><path d="M803.43,667.94H691.55c1.36-1.43,3.13-.87,4.73-.87q51.21-.06,102.43,0C800.31,667.06,802.08,666.5,803.43,667.94Z" transform="translate(-690.36 -121.81)" fill="#f3ecf4"/><path d="M817,651.07q.18-3.41.34-6.83c.22-.45.9-1.45.92-.93.23,5.47.15,11,.13,16.43,0,.07-.34.21-.35.2-.24-.35-.46-.72-.69-1.09Q817.22,655,817,651.07Z" transform="translate(-690.36 -121.81)" fill="#faa57e"/><path d="M748.49,818c1.65,1.73,3.77,1,5.68,1q68.66.06,137.31,0l5.07,0c.29.25.37.48.23.68s-.24.27-.36.27l-148.84-.1.12-2.75a1.92,1.92,0,0,1,.79.08c.34.18.46.35.34.53S748.61,818,748.49,818Z" transform="translate(-690.36 -121.81)" fill="#0091cf"/><path d="M747.49,821l116.91.13c-1.53,1.52-3.46.86-5.21.86q-53.28.06-106.55,0C750.9,822,748.94,822.68,747.49,821Z" transform="translate(-690.36 -121.81)" fill="#bbe1f4"/><path d="M793.63,348.2q0,13.5.1,27c-7.05-2-11.16-7.09-11-13.77S786.88,349.71,793.63,348.2Z" transform="translate(-690.36 -121.81)" fill="#8c436d"/><path d="M801.63,348.29l-7.22-.13c2.62-1.48,5.43-.54,8.16-.67Z" transform="translate(-690.36 -121.81)" fill="#f2e9ec"/><path d="M775.53,485.08l209.87,0c1,0,2,.12,3,.18-1.59,1.4-3.51.78-5.27.78q-101.21.06-202.39,0C779,486,777,486.67,775.53,485.08Z" transform="translate(-690.36 -121.81)" fill="#8fc4ee"/><path d="M691.56,635.15,802.08,635c1.82,0,3.65-.11,5.47-.17l2.88,1.3c-2.88,1.64-5.7-.26-8.58-.25-34.86.19-69.72.13-104.58.09C695.36,636,693.27,636.72,691.56,635.15Z" transform="translate(-690.36 -121.81)" fill="#acdffc"/><path d="M753.54,782.11l132.91.1c-1.59,1.39-3.51.79-5.28.8q-61.2,0-122.42,0C757,783,755.05,783.66,753.54,782.11Z" transform="translate(-690.36 -121.81)" fill="#91c2ea"/><path d="M710.43,745q0,12.56,0,25.11c-6.28-1.73-9.78-5.94-10-12C700.29,751.71,703.62,747.3,710.43,745Z" transform="translate(-690.36 -121.81)" fill="#192d56"/><path d="M747.49,740v-1c1.39-.84,2.92-.46,4.39-.47q63.6,0,127.22,0c1.46,0,3-.37,4.39.47-.72,1.18-1.9,1-3,1-2.53,1.43-5.24.43-7.83.43q-59.89.12-119.78,0C751.08,740.49,749.22,741,747.49,740Z" transform="translate(-690.36 -121.81)" fill="#fb6c8c"/><path d="M883.49,739h-136c0-.28,0-.56,0-.84q48.09-.08,96.16-.15c13.29,0,26.57.1,39.85.15Z" transform="translate(-690.36 -121.81)" fill="#fc758c"/><path d="M747.49,740h133c-.46.94-1.08,1.77-2.22,1.71-30.72-1.63-61.46-.29-92.19-.69-11.14-.14-22.28,0-33.42,0C750.91,741,749,741.67,747.49,740Z" transform="translate(-690.36 -121.81)" fill="#fe6d87"/><path d="M710.57,770.68l14.85.48C720.43,772.22,715.45,773.24,710.57,770.68Z" transform="translate(-690.36 -121.81)" fill="#fd6786"/><path d="M745.62,383.49l1-.14c-.31,1.35.61,2.36,1.21,3.83C745.1,386.81,745.79,384.9,745.62,383.49Z" transform="translate(-690.36 -121.81)" fill="#2d90cf"/><path d="M891.43,776.88q-47,.07-93.94.14c-14.32,0-28.65-.09-43-.14l1-.85c1.22-.78,2.59-.47,3.89-.47q60.11,0,120.21,0c1.31,0,2.68-.31,3.9.47C886.12,776.42,888.93,775.16,891.43,776.88Z" transform="translate(-690.36 -121.81)" fill="#fe6987"/><path d="M883.49,776h-128c1.47-1.63,3.42-1,5.17-1q58.83-.06,117.66,0C880.06,775.06,882,774.4,883.49,776Z" transform="translate(-690.36 -121.81)" fill="#f8708b"/><path d="M984.38,786.06c1.79,1.38,1.17,3.37,1,5.05-.53,7.3,1.42,14.71-1,21.9A185.05,185.05,0,0,1,984.38,786.06Z" transform="translate(-690.36 -121.81)" fill="#195ba5"/><path d="M984.38,786.06q0,13.49,0,27-.42,0-.84.09,0-13.56,0-27.13A3.66,3.66,0,0,0,984.38,786.06Z" transform="translate(-690.36 -121.81)" fill="#5691c9"/><path d="M748.55,778.06l142.35,0c1.5,0,3,.1,4.49.15.37.11.51.26.44.46s-.18.33-.28.33l-.07,0a148.06,148.06,0,0,1-17.85,1q-61.71.1-123.43,0c-1.9-.14-3.92.41-5.6-1A1.53,1.53,0,0,1,748.55,778.06Z" transform="translate(-690.36 -121.81)" fill="#0198d7"/><path d="M748.6,779h4.89c1.71,1,3.58.49,5.37.49q60.12,0,120.24.05c1.79,0,3.66-.46,5.39.46,0,.32,0,.63,0,1H748.58C748.58,780.32,748.59,779.68,748.6,779Z" transform="translate(-690.36 -121.81)" fill="#0191d4"/><path d="M960.46,812q0-12.49,0-25A63.19,63.19,0,0,1,960.46,812Z" transform="translate(-690.36 -121.81)" fill="#1a5ca8"/><path d="M972.29,787.06q0,12.48,0,25A79.39,79.39,0,0,1,972.29,787.06Z" transform="translate(-690.36 -121.81)" fill="#1b5ea4"/><path d="M768.46,571q0-8,0-16l1.07.06c1.57.85,3.27.45,4.9.45q97.07,0,194.13,0c1.63,0,3.33.39,4.9-.44l1,0c0,4.16-.09,8.32,0,12.48.07,2.54-.87,3.73-3.48,3.51-1.16-.09-2.33,0-3.49,0Z" transform="translate(-690.36 -121.81)" fill="#f2e9ec"/><path d="M768.45,554v-1c2.75-2.22,6-1.59,9.13-1.59q92.86,0,185.72-.05c3.39,0,7.17.87,9.43-2.93a1.41,1.41,0,0,1,1.73-.42c.93,4.82-1,6.11-5.86,6.1Q868.52,553.9,768.45,554Z" transform="translate(-690.36 -121.81)" fill="#80bde6"/><path d="M974.46,548h-1c-1.92,1.72-4.31,1.62-6.63,1.62q-95.24,0-190.46,0c-2.43,0-5.46.88-6.83-2.44,15.33,0,30.66-.14,46-.13q79.49,0,159,.11C974.51,547.45,974.48,547.75,974.46,548Z" transform="translate(-690.36 -121.81)" fill="#8fc4ec"/><path d="M973.45,555.09c-1.5,1.58-3.45.91-5.2.91q-96.76.06-193.54,0c-1.75,0-3.69.67-5.19-.92Z" transform="translate(-690.36 -121.81)" fill="#f8ecec"/><path d="M769.57,547.17c1.73,1.55,3.83.83,5.74.83q99.09.06,198.18,0c.76,4.44-1.55,5.08-5.41,5.07Q868.27,553,768.45,553c-.05-1.91-.1-3.83-.16-5.75Z" transform="translate(-690.36 -121.81)" fill="#89bfe8"/><path d="M748.49,818v-.79l3-.41a8.08,8.08,0,0,1,3-.28H884.43a9.89,9.89,0,0,1,3,.23c-1.44,2.15-3.65,1.21-5.5,1.21Q815.2,818.08,748.49,818Z" transform="translate(-690.36 -121.81)" fill="#018fd3"/><path d="M887.4,816.78c-6.66.09-13.31.24-20,.25q-55.71,0-111.42,0c-1.5,0-3-.13-4.49-.2a6.79,6.79,0,0,1,.05-.9l132.49.1c1.16,0,2.33.05,3.49.07A5.15,5.15,0,0,0,887.4,816.78Z" transform="translate(-690.36 -121.81)" fill="#afd3e1"/><path d="M981.47,696.18l.9.86a104.78,104.78,0,0,1,.08,24c-.38,1.34-.13,4.47-2.56,2.15-6.38-6.13-12.29-3.76-18.39.12-.1.06-.31-.05-.78-.15V696.22A66.85,66.85,0,0,1,981.47,696.18Z" transform="translate(-690.36 -121.81)" fill="#fd6f8c"/><path d="M982.45,721.05q0-12-.08-24c2.22,2.42,1.12,5.38,1,8C983.17,710.39,984.64,715.84,982.45,721.05Z" transform="translate(-690.36 -121.81)" fill="#f1f1f3"/><path d="M981.47,696.18l-20.75,0-.27-.41C967.48,694.74,974.5,694.11,981.47,696.18Z" transform="translate(-690.36 -121.81)" fill="#f0f2f3"/><path d="M959.21,704.29V720h-.49V704.24Z" transform="translate(-690.36 -121.81)" fill="#f2eff2"/><path d="M996.16,683.89H899.82v-.49h96.53Z" transform="translate(-690.36 -121.81)" fill="#8dc1e9"/><path d="M895.55,779a4.26,4.26,0,0,0-.16-.79h44c-1.56,1.44-3.48.79-5.22.8-12.25.07-24.49,0-36.73,0Z" transform="translate(-690.36 -121.81)" fill="#1061af"/><path d="M896.42,820c.05-.31.09-.63.13-1h1q18.65,0,37.29,0c1.58,0,3.36-.54,4.65,1Z" transform="translate(-690.36 -121.81)" fill="#195da4"/><path d="M952.75,476.15q0-19.42,0-38.86c1.33,1.19.88,2.78.89,4.22q0,15.21,0,30.41C953.59,473.36,954.05,475,952.75,476.15Z" transform="translate(-690.36 -121.81)" fill="#f2f2f2"/><path d="M804.77,476.15V434.32c1.27,1.22.83,2.8.83,4.24q0,16.68,0,33.35C805.6,473.36,806,474.94,804.77,476.15Z" transform="translate(-690.36 -121.81)" fill="#f0f0ee"/><path d="M767.2,555.34v10.6h-.5V555.19Z" transform="translate(-690.36 -121.81)" fill="#fb6585"/><path d="M884.49,780q-62.67,0-125.33,0c-1.9,0-4,.76-5.67-1h142C892,781.17,888.13,779.51,884.49,780Z" transform="translate(-690.36 -121.81)" fill="#0f94d1"/></svg>