<svg height="512" viewBox="0 0 58 58" width="512" xmlns="http://www.w3.org/2000/svg"><g id="Page-1" fill="none" fill-rule="evenodd"><g id="038---Add-Email" fill-rule="nonzero"><path id="Shape" d="m58 49v-18c0-1.1045695-.8954305-2-2-2h-54c-1.1045695 0-2 .8954305-2 2v18z" fill="#894b9d"/><path id="Shape" d="m51 2v46h-44v-46c.0032402-1.10322458.89677542-1.9967598 2-2h40c1.1032246.0032402 1.9967598.89677542 2 2z" fill="#f3d55b"/><path id="Shape" d="m51 38v10h-44v-10h9.46c.3375001.0006247.6525002.1693748.84.45l3.4 5.1c.1874998.2806252.5024999.4493753.84.45h14.92c.3375001-.0006247.6525002-.1693748.84-.45l3.4-5.1c.1874998-.2806252.5024999-.4493753.84-.45z" fill="#f0c419"/><path id="Shape" d="m58.0000002 40-.0000002 14c.0002919 1.0609554-.4210417 2.0785407-1.1712505 2.8287495s-1.7677941 1.1715424-2.8287495 1.1712505h-50c-1.06095541.0002919-2.07854066-.4210417-2.82874946-1.1712505-.75020879-.7502088-1.17154242-1.7677941-1.17125054-2.8287495l-.00000015-14h16.46000015c.3375001.0006247.6525002.1693748.84.45l3.4 5.1c.1874998.2806252.5024999.4493753.84.45h14.92c.3375001-.0006247.6525002-.1693748.84-.45l3.4-5.1c.1874998-.2806252.5024999-.4493753.84-.45z" fill="#894b9d"/><path id="Shape" d="m58.0000002 40-.0000002 12c.0002919 1.0609554-.4210417 2.0785407-1.1712505 2.8287495s-1.7677941 1.1715424-2.8287495 1.1712505h-50c-1.06095541.0002919-2.07854066-.4210417-2.82874946-1.1712505-.75020879-.7502088-1.17154242-1.7677941-1.17125054-2.8287495l-.00000015-12h16.46000015c.3375001.0006247.6525002.1693748.84.45l3.4 5.1c.1874998.2806252.5024999.4493753.84.45h14.92c.3375001-.0006247.6525002-.1693748.84-.45l3.4-5.1c.1874998-.2806252.5024999-.4493753.84-.45z" fill="#955ba5"/><path id="Shape" d="m43 18v6c0 .5522847-.4477153 1-1 1h-8c-.5522847 0-1 .4477153-1 1v8c0 .5522847-.4477153 1-1 1h-6c-.5522847 0-1-.4477153-1-1v-8c0-.5522847-.4477153-1-1-1h-8c-.5522847 0-1-.4477153-1-1v-6c0-.5522847.4477153-1 1-1h8c.5522847 0 1-.4477153 1-1v-8c0-.55228475.4477153-1 1-1h6c.5522847 0 1 .44771525 1 1v8c0 .5522847.4477153 1 1 1h8c.5522847 0 1 .4477153 1 1z" fill="#26b99a"/></g></g></svg>